<?xml version="1.0" encoding="utf-8" standalone="no"?>
<!DOCTYPE svg PUBLIC "-//W3C//DTD SVG 1.1//EN"
  "http://www.w3.org/Graphics/SVG/1.1/DTD/svg11.dtd">
<svg xmlns:xlink="http://www.w3.org/1999/xlink" width="271.590688pt" height="283.578058pt" viewBox="0 0 271.590688 283.578058" xmlns="http://www.w3.org/2000/svg" version="1.1">
 <metadata>
  <rdf:RDF xmlns:dc="http://purl.org/dc/elements/1.1/" xmlns:cc="http://creativecommons.org/ns#" xmlns:rdf="http://www.w3.org/1999/02/22-rdf-syntax-ns#">
   <cc:Work>
    <dc:type rdf:resource="http://purl.org/dc/dcmitype/StillImage"/>
    <dc:date>2022-07-13T10:53:31.671812</dc:date>
    <dc:format>image/svg+xml</dc:format>
    <dc:creator>
     <cc:Agent>
      <dc:title>Matplotlib v3.5.1, https://matplotlib.org/</dc:title>
     </cc:Agent>
    </dc:creator>
   </cc:Work>
  </rdf:RDF>
 </metadata>
 <defs>
  <style type="text/css">*{stroke-linejoin: round; stroke-linecap: butt}</style>
 </defs>
 <g id="figure_1">
  <g id="patch_1">
   <path d="M 0 283.578058 
L 271.590688 283.578058 
L 271.590688 0 
L 0 0 
z
" style="fill: #ffffff; stroke: #ffffff; stroke-linejoin: miter"/>
  </g>
  <g id="axes_1">
   <g id="patch_2">
    <path d="M 41.190688 247.865371 
L 264.390688 247.865371 
L 264.390688 26.105371 
L 41.190688 26.105371 
z
" style="fill: #ebebeb"/>
   </g>
   <g id="matplotlib.axis_1">
    <g id="xtick_1">
     <g id="line2d_1">
      <path d="M 85.154324 247.865371 
L 85.154324 26.105371 
" clip-path="url(#p88d7e746b7)" style="fill: none; stroke: #ffffff"/>
     </g>
     <g id="line2d_2">
      <path d="M 85.154324 247.865371 
" style="fill: none; stroke: #333333; stroke-width: 1.5"/>
      <defs>
       <path id="mc9eaf0f254" d="M 0 0 
L 0 2.75 
" style="stroke: #000000"/>
      </defs>
      <g>
       <use xlink:href="#mc9eaf0f254" x="85.154324" y="247.865371" style="fill: #333333; stroke: #000000"/>
      </g>
     </g>
     <g id="text_1">
      <!-- 40 -->
      <g style="fill: #4d4d4d" transform="translate(79.555324 259.501996)scale(0.088 -0.088)">
       <defs>
        <path id="DejaVuSans-34" d="M 2419 4116 
L 825 1625 
L 2419 1625 
L 2419 4116 
z
M 2253 4666 
L 3047 4666 
L 3047 1625 
L 3713 1625 
L 3713 1100 
L 3047 1100 
L 3047 0 
L 2419 0 
L 2419 1100 
L 313 1100 
L 313 1709 
L 2253 4666 
z
" transform="scale(0.015625)"/>
        <path id="DejaVuSans-30" d="M 2034 4250 
Q 1547 4250 1301 3770 
Q 1056 3291 1056 2328 
Q 1056 1369 1301 889 
Q 1547 409 2034 409 
Q 2525 409 2770 889 
Q 3016 1369 3016 2328 
Q 3016 3291 2770 3770 
Q 2525 4250 2034 4250 
z
M 2034 4750 
Q 2819 4750 3233 4129 
Q 3647 3509 3647 2328 
Q 3647 1150 3233 529 
Q 2819 -91 2034 -91 
Q 1250 -91 836 529 
Q 422 1150 422 2328 
Q 422 3509 836 4129 
Q 1250 4750 2034 4750 
z
" transform="scale(0.015625)"/>
       </defs>
       <use xlink:href="#DejaVuSans-34"/>
       <use xlink:href="#DejaVuSans-30" x="63.623047"/>
      </g>
     </g>
    </g>
    <g id="xtick_2">
     <g id="line2d_3">
      <path d="M 152.790688 247.865371 
L 152.790688 26.105371 
" clip-path="url(#p88d7e746b7)" style="fill: none; stroke: #ffffff"/>
     </g>
     <g id="line2d_4">
      <path d="M 152.790688 247.865371 
" style="fill: none; stroke: #333333; stroke-width: 1.5"/>
      <g>
       <use xlink:href="#mc9eaf0f254" x="152.790688" y="247.865371" style="fill: #333333; stroke: #000000"/>
      </g>
     </g>
     <g id="text_2">
      <!-- 50 -->
      <g style="fill: #4d4d4d" transform="translate(147.191688 259.501996)scale(0.088 -0.088)">
       <defs>
        <path id="DejaVuSans-35" d="M 691 4666 
L 3169 4666 
L 3169 4134 
L 1269 4134 
L 1269 2991 
Q 1406 3038 1543 3061 
Q 1681 3084 1819 3084 
Q 2600 3084 3056 2656 
Q 3513 2228 3513 1497 
Q 3513 744 3044 326 
Q 2575 -91 1722 -91 
Q 1428 -91 1123 -41 
Q 819 9 494 109 
L 494 744 
Q 775 591 1075 516 
Q 1375 441 1709 441 
Q 2250 441 2565 725 
Q 2881 1009 2881 1497 
Q 2881 1984 2565 2268 
Q 2250 2553 1709 2553 
Q 1456 2553 1204 2497 
Q 953 2441 691 2322 
L 691 4666 
z
" transform="scale(0.015625)"/>
       </defs>
       <use xlink:href="#DejaVuSans-35"/>
       <use xlink:href="#DejaVuSans-30" x="63.623047"/>
      </g>
     </g>
    </g>
    <g id="xtick_3">
     <g id="line2d_5">
      <path d="M 220.427051 247.865371 
L 220.427051 26.105371 
" clip-path="url(#p88d7e746b7)" style="fill: none; stroke: #ffffff"/>
     </g>
     <g id="line2d_6">
      <path d="M 220.427051 247.865371 
" style="fill: none; stroke: #333333; stroke-width: 1.5"/>
      <g>
       <use xlink:href="#mc9eaf0f254" x="220.427051" y="247.865371" style="fill: #333333; stroke: #000000"/>
      </g>
     </g>
     <g id="text_3">
      <!-- 60 -->
      <g style="fill: #4d4d4d" transform="translate(214.828051 259.501996)scale(0.088 -0.088)">
       <defs>
        <path id="DejaVuSans-36" d="M 2113 2584 
Q 1688 2584 1439 2293 
Q 1191 2003 1191 1497 
Q 1191 994 1439 701 
Q 1688 409 2113 409 
Q 2538 409 2786 701 
Q 3034 994 3034 1497 
Q 3034 2003 2786 2293 
Q 2538 2584 2113 2584 
z
M 3366 4563 
L 3366 3988 
Q 3128 4100 2886 4159 
Q 2644 4219 2406 4219 
Q 1781 4219 1451 3797 
Q 1122 3375 1075 2522 
Q 1259 2794 1537 2939 
Q 1816 3084 2150 3084 
Q 2853 3084 3261 2657 
Q 3669 2231 3669 1497 
Q 3669 778 3244 343 
Q 2819 -91 2113 -91 
Q 1303 -91 875 529 
Q 447 1150 447 2328 
Q 447 3434 972 4092 
Q 1497 4750 2381 4750 
Q 2619 4750 2861 4703 
Q 3103 4656 3366 4563 
z
" transform="scale(0.015625)"/>
       </defs>
       <use xlink:href="#DejaVuSans-36"/>
       <use xlink:href="#DejaVuSans-30" x="63.623047"/>
      </g>
     </g>
    </g>
    <g id="xtick_4">
     <g id="line2d_7">
      <path d="M 51.336142 247.865371 
L 51.336142 26.105371 
" clip-path="url(#p88d7e746b7)" style="fill: none; stroke: #ffffff; stroke-width: 0.5"/>
     </g>
    </g>
    <g id="xtick_5">
     <g id="line2d_8">
      <path d="M 118.972506 247.865371 
L 118.972506 26.105371 
" clip-path="url(#p88d7e746b7)" style="fill: none; stroke: #ffffff; stroke-width: 0.5"/>
     </g>
    </g>
    <g id="xtick_6">
     <g id="line2d_9">
      <path d="M 186.608869 247.865371 
L 186.608869 26.105371 
" clip-path="url(#p88d7e746b7)" style="fill: none; stroke: #ffffff; stroke-width: 0.5"/>
     </g>
    </g>
    <g id="xtick_7">
     <g id="line2d_10">
      <path d="M 254.245233 247.865371 
L 254.245233 26.105371 
" clip-path="url(#p88d7e746b7)" style="fill: none; stroke: #ffffff; stroke-width: 0.5"/>
     </g>
    </g>
    <g id="text_4">
     <!-- Timepoint -->
     <g transform="translate(121.707016 274.090402)scale(0.11 -0.11)">
      <defs>
       <path id="DejaVuSans-54" d="M -19 4666 
L 3928 4666 
L 3928 4134 
L 2272 4134 
L 2272 0 
L 1638 0 
L 1638 4134 
L -19 4134 
L -19 4666 
z
" transform="scale(0.015625)"/>
       <path id="DejaVuSans-69" d="M 603 3500 
L 1178 3500 
L 1178 0 
L 603 0 
L 603 3500 
z
M 603 4863 
L 1178 4863 
L 1178 4134 
L 603 4134 
L 603 4863 
z
" transform="scale(0.015625)"/>
       <path id="DejaVuSans-6d" d="M 3328 2828 
Q 3544 3216 3844 3400 
Q 4144 3584 4550 3584 
Q 5097 3584 5394 3201 
Q 5691 2819 5691 2113 
L 5691 0 
L 5113 0 
L 5113 2094 
Q 5113 2597 4934 2840 
Q 4756 3084 4391 3084 
Q 3944 3084 3684 2787 
Q 3425 2491 3425 1978 
L 3425 0 
L 2847 0 
L 2847 2094 
Q 2847 2600 2669 2842 
Q 2491 3084 2119 3084 
Q 1678 3084 1418 2786 
Q 1159 2488 1159 1978 
L 1159 0 
L 581 0 
L 581 3500 
L 1159 3500 
L 1159 2956 
Q 1356 3278 1631 3431 
Q 1906 3584 2284 3584 
Q 2666 3584 2933 3390 
Q 3200 3197 3328 2828 
z
" transform="scale(0.015625)"/>
       <path id="DejaVuSans-65" d="M 3597 1894 
L 3597 1613 
L 953 1613 
Q 991 1019 1311 708 
Q 1631 397 2203 397 
Q 2534 397 2845 478 
Q 3156 559 3463 722 
L 3463 178 
Q 3153 47 2828 -22 
Q 2503 -91 2169 -91 
Q 1331 -91 842 396 
Q 353 884 353 1716 
Q 353 2575 817 3079 
Q 1281 3584 2069 3584 
Q 2775 3584 3186 3129 
Q 3597 2675 3597 1894 
z
M 3022 2063 
Q 3016 2534 2758 2815 
Q 2500 3097 2075 3097 
Q 1594 3097 1305 2825 
Q 1016 2553 972 2059 
L 3022 2063 
z
" transform="scale(0.015625)"/>
       <path id="DejaVuSans-70" d="M 1159 525 
L 1159 -1331 
L 581 -1331 
L 581 3500 
L 1159 3500 
L 1159 2969 
Q 1341 3281 1617 3432 
Q 1894 3584 2278 3584 
Q 2916 3584 3314 3078 
Q 3713 2572 3713 1747 
Q 3713 922 3314 415 
Q 2916 -91 2278 -91 
Q 1894 -91 1617 61 
Q 1341 213 1159 525 
z
M 3116 1747 
Q 3116 2381 2855 2742 
Q 2594 3103 2138 3103 
Q 1681 3103 1420 2742 
Q 1159 2381 1159 1747 
Q 1159 1113 1420 752 
Q 1681 391 2138 391 
Q 2594 391 2855 752 
Q 3116 1113 3116 1747 
z
" transform="scale(0.015625)"/>
       <path id="DejaVuSans-6f" d="M 1959 3097 
Q 1497 3097 1228 2736 
Q 959 2375 959 1747 
Q 959 1119 1226 758 
Q 1494 397 1959 397 
Q 2419 397 2687 759 
Q 2956 1122 2956 1747 
Q 2956 2369 2687 2733 
Q 2419 3097 1959 3097 
z
M 1959 3584 
Q 2709 3584 3137 3096 
Q 3566 2609 3566 1747 
Q 3566 888 3137 398 
Q 2709 -91 1959 -91 
Q 1206 -91 779 398 
Q 353 888 353 1747 
Q 353 2609 779 3096 
Q 1206 3584 1959 3584 
z
" transform="scale(0.015625)"/>
       <path id="DejaVuSans-6e" d="M 3513 2113 
L 3513 0 
L 2938 0 
L 2938 2094 
Q 2938 2591 2744 2837 
Q 2550 3084 2163 3084 
Q 1697 3084 1428 2787 
Q 1159 2491 1159 1978 
L 1159 0 
L 581 0 
L 581 3500 
L 1159 3500 
L 1159 2956 
Q 1366 3272 1645 3428 
Q 1925 3584 2291 3584 
Q 2894 3584 3203 3211 
Q 3513 2838 3513 2113 
z
" transform="scale(0.015625)"/>
       <path id="DejaVuSans-74" d="M 1172 4494 
L 1172 3500 
L 2356 3500 
L 2356 3053 
L 1172 3053 
L 1172 1153 
Q 1172 725 1289 603 
Q 1406 481 1766 481 
L 2356 481 
L 2356 0 
L 1766 0 
Q 1100 0 847 248 
Q 594 497 594 1153 
L 594 3053 
L 172 3053 
L 172 3500 
L 594 3500 
L 594 4494 
L 1172 4494 
z
" transform="scale(0.015625)"/>
      </defs>
      <use xlink:href="#DejaVuSans-54"/>
      <use xlink:href="#DejaVuSans-69" x="57.958984"/>
      <use xlink:href="#DejaVuSans-6d" x="85.742188"/>
      <use xlink:href="#DejaVuSans-65" x="183.154297"/>
      <use xlink:href="#DejaVuSans-70" x="244.677734"/>
      <use xlink:href="#DejaVuSans-6f" x="308.154297"/>
      <use xlink:href="#DejaVuSans-69" x="369.335938"/>
      <use xlink:href="#DejaVuSans-6e" x="397.119141"/>
      <use xlink:href="#DejaVuSans-74" x="460.498047"/>
     </g>
    </g>
   </g>
   <g id="matplotlib.axis_2">
    <g id="ytick_1">
     <g id="line2d_11">
      <path d="M 41.190688 204.185371 
L 264.390688 204.185371 
" clip-path="url(#p88d7e746b7)" style="fill: none; stroke: #ffffff"/>
     </g>
     <g id="line2d_12">
      <path d="M 41.190688 204.185371 
" style="fill: none; stroke: #333333; stroke-width: 1.5"/>
      <defs>
       <path id="m396be199a4" d="M 0 0 
L -2.75 0 
" style="stroke: #000000"/>
      </defs>
      <g>
       <use xlink:href="#m396be199a4" x="41.190688" y="204.185371" style="fill: #333333; stroke: #000000"/>
      </g>
     </g>
     <g id="text_5">
      <!-- 2.5 -->
      <g style="fill: #4d4d4d" transform="translate(22.245937 206.613621)scale(0.088 -0.088)">
       <defs>
        <path id="DejaVuSans-32" d="M 1228 531 
L 3431 531 
L 3431 0 
L 469 0 
L 469 531 
Q 828 903 1448 1529 
Q 2069 2156 2228 2338 
Q 2531 2678 2651 2914 
Q 2772 3150 2772 3378 
Q 2772 3750 2511 3984 
Q 2250 4219 1831 4219 
Q 1534 4219 1204 4116 
Q 875 4013 500 3803 
L 500 4441 
Q 881 4594 1212 4672 
Q 1544 4750 1819 4750 
Q 2544 4750 2975 4387 
Q 3406 4025 3406 3419 
Q 3406 3131 3298 2873 
Q 3191 2616 2906 2266 
Q 2828 2175 2409 1742 
Q 1991 1309 1228 531 
z
" transform="scale(0.015625)"/>
        <path id="DejaVuSans-2e" d="M 684 794 
L 1344 794 
L 1344 0 
L 684 0 
L 684 794 
z
" transform="scale(0.015625)"/>
       </defs>
       <use xlink:href="#DejaVuSans-32"/>
       <use xlink:href="#DejaVuSans-2e" x="63.623047"/>
       <use xlink:href="#DejaVuSans-35" x="95.410156"/>
      </g>
     </g>
    </g>
    <g id="ytick_2">
     <g id="line2d_13">
      <path d="M 41.190688 148.185371 
L 264.390688 148.185371 
" clip-path="url(#p88d7e746b7)" style="fill: none; stroke: #ffffff"/>
     </g>
     <g id="line2d_14">
      <path d="M 41.190688 148.185371 
" style="fill: none; stroke: #333333; stroke-width: 1.5"/>
      <g>
       <use xlink:href="#m396be199a4" x="41.190688" y="148.185371" style="fill: #333333; stroke: #000000"/>
      </g>
     </g>
     <g id="text_6">
      <!-- 5 -->
      <g style="fill: #4d4d4d" transform="translate(30.641687 150.613621)scale(0.088 -0.088)">
       <use xlink:href="#DejaVuSans-35"/>
      </g>
     </g>
    </g>
    <g id="ytick_3">
     <g id="line2d_15">
      <path d="M 41.190688 92.185371 
L 264.390688 92.185371 
" clip-path="url(#p88d7e746b7)" style="fill: none; stroke: #ffffff"/>
     </g>
     <g id="line2d_16">
      <path d="M 41.190688 92.185371 
" style="fill: none; stroke: #333333; stroke-width: 1.5"/>
      <g>
       <use xlink:href="#m396be199a4" x="41.190688" y="92.185371" style="fill: #333333; stroke: #000000"/>
      </g>
     </g>
     <g id="text_7">
      <!-- 7.5 -->
      <g style="fill: #4d4d4d" transform="translate(22.245937 94.613621)scale(0.088 -0.088)">
       <defs>
        <path id="DejaVuSans-37" d="M 525 4666 
L 3525 4666 
L 3525 4397 
L 1831 0 
L 1172 0 
L 2766 4134 
L 525 4134 
L 525 4666 
z
" transform="scale(0.015625)"/>
       </defs>
       <use xlink:href="#DejaVuSans-37"/>
       <use xlink:href="#DejaVuSans-2e" x="63.623047"/>
       <use xlink:href="#DejaVuSans-35" x="95.410156"/>
      </g>
     </g>
    </g>
    <g id="ytick_4">
     <g id="line2d_17">
      <path d="M 41.190688 36.185371 
L 264.390688 36.185371 
" clip-path="url(#p88d7e746b7)" style="fill: none; stroke: #ffffff"/>
     </g>
     <g id="line2d_18">
      <path d="M 41.190688 36.185371 
" style="fill: none; stroke: #333333; stroke-width: 1.5"/>
      <g>
       <use xlink:href="#m396be199a4" x="41.190688" y="36.185371" style="fill: #333333; stroke: #000000"/>
      </g>
     </g>
     <g id="text_8">
      <!-- 10 -->
      <g style="fill: #4d4d4d" transform="translate(25.042687 38.613621)scale(0.088 -0.088)">
       <defs>
        <path id="DejaVuSans-31" d="M 794 531 
L 1825 531 
L 1825 4091 
L 703 3866 
L 703 4441 
L 1819 4666 
L 2450 4666 
L 2450 531 
L 3481 531 
L 3481 0 
L 794 0 
L 794 531 
z
" transform="scale(0.015625)"/>
       </defs>
       <use xlink:href="#DejaVuSans-31"/>
       <use xlink:href="#DejaVuSans-30" x="63.623047"/>
      </g>
     </g>
    </g>
    <g id="ytick_5">
     <g id="line2d_19">
      <path d="M 41.190688 232.185371 
L 264.390688 232.185371 
" clip-path="url(#p88d7e746b7)" style="fill: none; stroke: #ffffff; stroke-width: 0.5"/>
     </g>
    </g>
    <g id="ytick_6">
     <g id="line2d_20">
      <path d="M 41.190688 176.185371 
L 264.390688 176.185371 
" clip-path="url(#p88d7e746b7)" style="fill: none; stroke: #ffffff; stroke-width: 0.5"/>
     </g>
    </g>
    <g id="ytick_7">
     <g id="line2d_21">
      <path d="M 41.190688 120.185371 
L 264.390688 120.185371 
" clip-path="url(#p88d7e746b7)" style="fill: none; stroke: #ffffff; stroke-width: 0.5"/>
     </g>
    </g>
    <g id="ytick_8">
     <g id="line2d_22">
      <path d="M 41.190688 64.185371 
L 264.390688 64.185371 
" clip-path="url(#p88d7e746b7)" style="fill: none; stroke: #ffffff; stroke-width: 0.5"/>
     </g>
    </g>
    <g id="text_9">
     <!-- Spickle Ratio -->
     <g transform="translate(15.558281 171.043574)rotate(-90)scale(0.11 -0.11)">
      <defs>
       <path id="DejaVuSans-53" d="M 3425 4513 
L 3425 3897 
Q 3066 4069 2747 4153 
Q 2428 4238 2131 4238 
Q 1616 4238 1336 4038 
Q 1056 3838 1056 3469 
Q 1056 3159 1242 3001 
Q 1428 2844 1947 2747 
L 2328 2669 
Q 3034 2534 3370 2195 
Q 3706 1856 3706 1288 
Q 3706 609 3251 259 
Q 2797 -91 1919 -91 
Q 1588 -91 1214 -16 
Q 841 59 441 206 
L 441 856 
Q 825 641 1194 531 
Q 1563 422 1919 422 
Q 2459 422 2753 634 
Q 3047 847 3047 1241 
Q 3047 1584 2836 1778 
Q 2625 1972 2144 2069 
L 1759 2144 
Q 1053 2284 737 2584 
Q 422 2884 422 3419 
Q 422 4038 858 4394 
Q 1294 4750 2059 4750 
Q 2388 4750 2728 4690 
Q 3069 4631 3425 4513 
z
" transform="scale(0.015625)"/>
       <path id="DejaVuSans-63" d="M 3122 3366 
L 3122 2828 
Q 2878 2963 2633 3030 
Q 2388 3097 2138 3097 
Q 1578 3097 1268 2742 
Q 959 2388 959 1747 
Q 959 1106 1268 751 
Q 1578 397 2138 397 
Q 2388 397 2633 464 
Q 2878 531 3122 666 
L 3122 134 
Q 2881 22 2623 -34 
Q 2366 -91 2075 -91 
Q 1284 -91 818 406 
Q 353 903 353 1747 
Q 353 2603 823 3093 
Q 1294 3584 2113 3584 
Q 2378 3584 2631 3529 
Q 2884 3475 3122 3366 
z
" transform="scale(0.015625)"/>
       <path id="DejaVuSans-6b" d="M 581 4863 
L 1159 4863 
L 1159 1991 
L 2875 3500 
L 3609 3500 
L 1753 1863 
L 3688 0 
L 2938 0 
L 1159 1709 
L 1159 0 
L 581 0 
L 581 4863 
z
" transform="scale(0.015625)"/>
       <path id="DejaVuSans-6c" d="M 603 4863 
L 1178 4863 
L 1178 0 
L 603 0 
L 603 4863 
z
" transform="scale(0.015625)"/>
       <path id="DejaVuSans-20" transform="scale(0.015625)"/>
       <path id="DejaVuSans-52" d="M 2841 2188 
Q 3044 2119 3236 1894 
Q 3428 1669 3622 1275 
L 4263 0 
L 3584 0 
L 2988 1197 
Q 2756 1666 2539 1819 
Q 2322 1972 1947 1972 
L 1259 1972 
L 1259 0 
L 628 0 
L 628 4666 
L 2053 4666 
Q 2853 4666 3247 4331 
Q 3641 3997 3641 3322 
Q 3641 2881 3436 2590 
Q 3231 2300 2841 2188 
z
M 1259 4147 
L 1259 2491 
L 2053 2491 
Q 2509 2491 2742 2702 
Q 2975 2913 2975 3322 
Q 2975 3731 2742 3939 
Q 2509 4147 2053 4147 
L 1259 4147 
z
" transform="scale(0.015625)"/>
       <path id="DejaVuSans-61" d="M 2194 1759 
Q 1497 1759 1228 1600 
Q 959 1441 959 1056 
Q 959 750 1161 570 
Q 1363 391 1709 391 
Q 2188 391 2477 730 
Q 2766 1069 2766 1631 
L 2766 1759 
L 2194 1759 
z
M 3341 1997 
L 3341 0 
L 2766 0 
L 2766 531 
Q 2569 213 2275 61 
Q 1981 -91 1556 -91 
Q 1019 -91 701 211 
Q 384 513 384 1019 
Q 384 1609 779 1909 
Q 1175 2209 1959 2209 
L 2766 2209 
L 2766 2266 
Q 2766 2663 2505 2880 
Q 2244 3097 1772 3097 
Q 1472 3097 1187 3025 
Q 903 2953 641 2809 
L 641 3341 
Q 956 3463 1253 3523 
Q 1550 3584 1831 3584 
Q 2591 3584 2966 3190 
Q 3341 2797 3341 1997 
z
" transform="scale(0.015625)"/>
      </defs>
      <use xlink:href="#DejaVuSans-53"/>
      <use xlink:href="#DejaVuSans-70" x="63.476562"/>
      <use xlink:href="#DejaVuSans-69" x="126.953125"/>
      <use xlink:href="#DejaVuSans-63" x="154.736328"/>
      <use xlink:href="#DejaVuSans-6b" x="209.716797"/>
      <use xlink:href="#DejaVuSans-6c" x="267.626953"/>
      <use xlink:href="#DejaVuSans-65" x="295.410156"/>
      <use xlink:href="#DejaVuSans-20" x="356.933594"/>
      <use xlink:href="#DejaVuSans-52" x="388.720703"/>
      <use xlink:href="#DejaVuSans-61" x="455.953125"/>
      <use xlink:href="#DejaVuSans-74" x="517.232422"/>
      <use xlink:href="#DejaVuSans-69" x="556.441406"/>
      <use xlink:href="#DejaVuSans-6f" x="584.224609"/>
     </g>
    </g>
   </g>
   <g id="PathCollection_1">
    <path d="M 220.427051 222.194511 
C 220.897111 222.194511 221.347982 222.007754 221.680365 221.675371 
C 222.012748 221.342988 222.199505 220.892117 222.199505 220.422057 
C 222.199505 219.951997 222.012748 219.501126 221.680365 219.168743 
C 221.347982 218.83636 220.897111 218.649603 220.427051 218.649603 
C 219.956991 218.649603 219.50612 218.83636 219.173737 219.168743 
C 218.841354 219.501126 218.654597 219.951997 218.654597 220.422057 
C 218.654597 220.892117 218.841354 221.342988 219.173737 221.675371 
C 219.50612 222.007754 219.956991 222.194511 220.427051 222.194511 
z
" clip-path="url(#p88d7e746b7)" style="stroke: #000000; stroke-width: 0.886227"/>
    <path d="M 227.190688 222.659579 
C 227.660748 222.659579 228.111619 222.472822 228.444002 222.140439 
C 228.776384 221.808056 228.963141 221.357185 228.963141 220.887125 
C 228.963141 220.417065 228.776384 219.966194 228.444002 219.633811 
C 228.111619 219.301428 227.660748 219.114671 227.190688 219.114671 
C 226.720627 219.114671 226.269756 219.301428 225.937373 219.633811 
C 225.604991 219.966194 225.418234 220.417065 225.418234 220.887125 
C 225.418234 221.357185 225.604991 221.808056 225.937373 222.140439 
C 226.269756 222.472822 226.720627 222.659579 227.190688 222.659579 
z
" clip-path="url(#p88d7e746b7)" style="stroke: #000000; stroke-width: 0.886227"/>
    <path d="M 233.954324 223.848184 
C 234.424384 223.848184 234.875255 223.661427 235.207638 223.329044 
C 235.540021 222.996661 235.726778 222.54579 235.726778 222.07573 
C 235.726778 221.60567 235.540021 221.154799 235.207638 220.822416 
C 234.875255 220.490033 234.424384 220.303276 233.954324 220.303276 
C 233.484264 220.303276 233.033393 220.490033 232.70101 220.822416 
C 232.368627 221.154799 232.18187 221.60567 232.18187 222.07573 
C 232.18187 222.54579 232.368627 222.996661 232.70101 223.329044 
C 233.033393 223.661427 233.484264 223.848184 233.954324 223.848184 
z
" clip-path="url(#p88d7e746b7)" style="stroke: #000000; stroke-width: 0.886227"/>
    <path d="M 220.427051 226.464867 
C 220.897111 226.464867 221.347982 226.27811 221.680365 225.945727 
C 222.012748 225.613344 222.199505 225.162473 222.199505 224.692413 
C 222.199505 224.222353 222.012748 223.771482 221.680365 223.439099 
C 221.347982 223.106716 220.897111 222.919959 220.427051 222.919959 
C 219.956991 222.919959 219.50612 223.106716 219.173737 223.439099 
C 218.841354 223.771482 218.654597 224.222353 218.654597 224.692413 
C 218.654597 225.162473 218.841354 225.613344 219.173737 225.945727 
C 219.50612 226.27811 219.956991 226.464867 220.427051 226.464867 
z
" clip-path="url(#p88d7e746b7)" style="stroke: #000000; stroke-width: 0.886227"/>
    <path d="M 227.190688 196.715106 
C 227.660748 196.715106 228.111619 196.528349 228.444002 196.195966 
C 228.776384 195.863584 228.963141 195.412713 228.963141 194.942652 
C 228.963141 194.472592 228.776384 194.021721 228.444002 193.689338 
C 228.111619 193.356955 227.660748 193.170198 227.190688 193.170198 
C 226.720627 193.170198 226.269756 193.356955 225.937373 193.689338 
C 225.604991 194.021721 225.418234 194.472592 225.418234 194.942652 
C 225.418234 195.412713 225.604991 195.863584 225.937373 196.195966 
C 226.269756 196.528349 226.720627 196.715106 227.190688 196.715106 
z
" clip-path="url(#p88d7e746b7)" style="stroke: #000000; stroke-width: 0.886227"/>
    <path d="M 233.954324 161.990882 
C 234.424384 161.990882 234.875255 161.804126 235.207638 161.471743 
C 235.540021 161.13936 235.726778 160.688489 235.726778 160.218429 
C 235.726778 159.748368 235.540021 159.297497 235.207638 158.965114 
C 234.875255 158.632732 234.424384 158.445975 233.954324 158.445975 
C 233.484264 158.445975 233.033393 158.632732 232.70101 158.965114 
C 232.368627 159.297497 232.18187 159.748368 232.18187 160.218429 
C 232.18187 160.688489 232.368627 161.13936 232.70101 161.471743 
C 233.033393 161.804126 233.484264 161.990882 233.954324 161.990882 
z
" clip-path="url(#p88d7e746b7)" style="stroke: #000000; stroke-width: 0.886227"/>
    <path d="M 240.71796 158.925457 
C 241.18802 158.925457 241.638892 158.7387 241.971274 158.406317 
C 242.303657 158.073934 242.490414 157.623063 242.490414 157.153003 
C 242.490414 156.682942 242.303657 156.232071 241.971274 155.899689 
C 241.638892 155.567306 241.18802 155.380549 240.71796 155.380549 
C 240.2479 155.380549 239.797029 155.567306 239.464646 155.899689 
C 239.132263 156.232071 238.945506 156.682942 238.945506 157.153003 
C 238.945506 157.623063 239.132263 158.073934 239.464646 158.406317 
C 239.797029 158.7387 240.2479 158.925457 240.71796 158.925457 
z
" clip-path="url(#p88d7e746b7)" style="stroke: #000000; stroke-width: 0.886227"/>
    <path d="M 247.481597 157.681963 
C 247.951657 157.681963 248.402528 157.495206 248.734911 157.162823 
C 249.067294 156.83044 249.25405 156.379569 249.25405 155.909509 
C 249.25405 155.439448 249.067294 154.988577 248.734911 154.656195 
C 248.402528 154.323812 247.951657 154.137055 247.481597 154.137055 
C 247.011536 154.137055 246.560665 154.323812 246.228282 154.656195 
C 245.8959 154.988577 245.709143 155.439448 245.709143 155.909509 
C 245.709143 156.379569 245.8959 156.83044 246.228282 157.162823 
C 246.560665 157.495206 247.011536 157.681963 247.481597 157.681963 
z
" clip-path="url(#p88d7e746b7)" style="stroke: #000000; stroke-width: 0.886227"/>
    <path d="M 98.681597 224.830753 
C 99.151657 224.830753 99.602528 224.643996 99.934911 224.311613 
C 100.267294 223.97923 100.45405 223.528359 100.45405 223.058299 
C 100.45405 222.588239 100.267294 222.137368 99.934911 221.804985 
C 99.602528 221.472602 99.151657 221.285845 98.681597 221.285845 
C 98.211536 221.285845 97.760665 221.472602 97.428282 221.804985 
C 97.0959 222.137368 96.909143 222.588239 96.909143 223.058299 
C 96.909143 223.528359 97.0959 223.97923 97.428282 224.311613 
C 97.760665 224.643996 98.211536 224.830753 98.681597 224.830753 
z
" clip-path="url(#p88d7e746b7)" style="stroke: #000000; stroke-width: 0.886227"/>
    <path d="M 105.445233 177.251942 
C 105.915293 177.251942 106.366164 177.065185 106.698547 176.732803 
C 107.03093 176.40042 107.217687 175.949549 107.217687 175.479488 
C 107.217687 175.009428 107.03093 174.558557 106.698547 174.226174 
C 106.366164 173.893791 105.915293 173.707035 105.445233 173.707035 
C 104.975173 173.707035 104.524302 173.893791 104.191919 174.226174 
C 103.859536 174.558557 103.672779 175.009428 103.672779 175.479488 
C 103.672779 175.949549 103.859536 176.40042 104.191919 176.732803 
C 104.524302 177.065185 104.975173 177.251942 105.445233 177.251942 
z
" clip-path="url(#p88d7e746b7)" style="stroke: #000000; stroke-width: 0.886227"/>
    <path d="M 112.208869 185.157825 
C 112.67893 185.157825 113.129801 184.971068 113.462183 184.638685 
C 113.794566 184.306302 113.981323 183.855431 113.981323 183.385371 
C 113.981323 182.91531 113.794566 182.464439 113.462183 182.132057 
C 113.129801 181.799674 112.67893 181.612917 112.208869 181.612917 
C 111.738809 181.612917 111.287938 181.799674 110.955555 182.132057 
C 110.623172 182.464439 110.436415 182.91531 110.436415 183.385371 
C 110.436415 183.855431 110.623172 184.306302 110.955555 184.638685 
C 111.287938 184.971068 111.738809 185.157825 112.208869 185.157825 
z
" clip-path="url(#p88d7e746b7)" style="stroke: #000000; stroke-width: 0.886227"/>
    <path d="M 118.972506 221.718304 
C 119.442566 221.718304 119.893437 221.531547 120.22582 221.199164 
C 120.558203 220.866781 120.74496 220.41591 120.74496 219.94585 
C 120.74496 219.47579 120.558203 219.024918 120.22582 218.692536 
C 119.893437 218.360153 119.442566 218.173396 118.972506 218.173396 
C 118.502445 218.173396 118.051574 218.360153 117.719192 218.692536 
C 117.386809 219.024918 117.200052 219.47579 117.200052 219.94585 
C 117.200052 220.41591 117.386809 220.866781 117.719192 221.199164 
C 118.051574 221.531547 118.502445 221.718304 118.972506 221.718304 
z
" clip-path="url(#p88d7e746b7)" style="stroke: #000000; stroke-width: 0.886227"/>
    <path d="M 51.336142 237.130238 
C 51.806202 237.130238 52.257073 236.943481 52.589456 236.611099 
C 52.921839 236.278716 53.108596 235.827845 53.108596 235.357785 
C 53.108596 234.887724 52.921839 234.436853 52.589456 234.10447 
C 52.257073 233.772088 51.806202 233.585331 51.336142 233.585331 
C 50.866082 233.585331 50.415211 233.772088 50.082828 234.10447 
C 49.750445 234.436853 49.563688 234.887724 49.563688 235.357785 
C 49.563688 235.827845 49.750445 236.278716 50.082828 236.611099 
C 50.415211 236.943481 50.866082 237.130238 51.336142 237.130238 
z
" clip-path="url(#p88d7e746b7)" style="stroke: #000000; stroke-width: 0.886227"/>
    <path d="M 152.790688 238.032591 
C 153.260748 238.032591 153.711619 237.845834 154.044002 237.513451 
C 154.376384 237.181068 154.563141 236.730197 154.563141 236.260137 
C 154.563141 235.790077 154.376384 235.339206 154.044002 235.006823 
C 153.711619 234.67444 153.260748 234.487683 152.790688 234.487683 
C 152.320627 234.487683 151.869756 234.67444 151.537373 235.006823 
C 151.204991 235.339206 151.018234 235.790077 151.018234 236.260137 
C 151.018234 236.730197 151.204991 237.181068 151.537373 237.513451 
C 151.869756 237.845834 152.320627 238.032591 152.790688 238.032591 
z
" clip-path="url(#p88d7e746b7)" style="stroke: #000000; stroke-width: 0.886227"/>
    <path d="M 159.554324 214.861898 
C 160.024384 214.861898 160.475255 214.675141 160.807638 214.342758 
C 161.140021 214.010376 161.326778 213.559505 161.326778 213.089444 
C 161.326778 212.619384 161.140021 212.168513 160.807638 211.83613 
C 160.475255 211.503747 160.024384 211.31699 159.554324 211.31699 
C 159.084264 211.31699 158.633393 211.503747 158.30101 211.83613 
C 157.968627 212.168513 157.78187 212.619384 157.78187 213.089444 
C 157.78187 213.559505 157.968627 214.010376 158.30101 214.342758 
C 158.633393 214.675141 159.084264 214.861898 159.554324 214.861898 
z
" clip-path="url(#p88d7e746b7)" style="stroke: #000000; stroke-width: 0.886227"/>
    <path d="M 166.31796 219.743455 
C 166.78802 219.743455 167.238892 219.556698 167.571274 219.224315 
C 167.903657 218.891932 168.090414 218.441061 168.090414 217.971001 
C 168.090414 217.500941 167.903657 217.05007 167.571274 216.717687 
C 167.238892 216.385304 166.78802 216.198547 166.31796 216.198547 
C 165.8479 216.198547 165.397029 216.385304 165.064646 216.717687 
C 164.732263 217.05007 164.545506 217.500941 164.545506 217.971001 
C 164.545506 218.441061 164.732263 218.891932 165.064646 219.224315 
C 165.397029 219.556698 165.8479 219.743455 166.31796 219.743455 
z
" clip-path="url(#p88d7e746b7)" style="stroke: #000000; stroke-width: 0.886227"/>
   </g>
   <g id="LineCollection_1">
    <path d="M 41.190688 211.290559 
L 264.390688 211.290559 
" clip-path="url(#p88d7e746b7)" style="fill: none; stroke: #000000; stroke-width: 0.886227"/>
   </g>
  </g>
  <g id="text_10">
   <!-- AR C4 spickle ratios -->
   <g transform="translate(83.526875 17.229938)scale(0.132 -0.132)">
    <defs>
     <path id="DejaVuSans-41" d="M 2188 4044 
L 1331 1722 
L 3047 1722 
L 2188 4044 
z
M 1831 4666 
L 2547 4666 
L 4325 0 
L 3669 0 
L 3244 1197 
L 1141 1197 
L 716 0 
L 50 0 
L 1831 4666 
z
" transform="scale(0.015625)"/>
     <path id="DejaVuSans-43" d="M 4122 4306 
L 4122 3641 
Q 3803 3938 3442 4084 
Q 3081 4231 2675 4231 
Q 1875 4231 1450 3742 
Q 1025 3253 1025 2328 
Q 1025 1406 1450 917 
Q 1875 428 2675 428 
Q 3081 428 3442 575 
Q 3803 722 4122 1019 
L 4122 359 
Q 3791 134 3420 21 
Q 3050 -91 2638 -91 
Q 1578 -91 968 557 
Q 359 1206 359 2328 
Q 359 3453 968 4101 
Q 1578 4750 2638 4750 
Q 3056 4750 3426 4639 
Q 3797 4528 4122 4306 
z
" transform="scale(0.015625)"/>
     <path id="DejaVuSans-73" d="M 2834 3397 
L 2834 2853 
Q 2591 2978 2328 3040 
Q 2066 3103 1784 3103 
Q 1356 3103 1142 2972 
Q 928 2841 928 2578 
Q 928 2378 1081 2264 
Q 1234 2150 1697 2047 
L 1894 2003 
Q 2506 1872 2764 1633 
Q 3022 1394 3022 966 
Q 3022 478 2636 193 
Q 2250 -91 1575 -91 
Q 1294 -91 989 -36 
Q 684 19 347 128 
L 347 722 
Q 666 556 975 473 
Q 1284 391 1588 391 
Q 1994 391 2212 530 
Q 2431 669 2431 922 
Q 2431 1156 2273 1281 
Q 2116 1406 1581 1522 
L 1381 1569 
Q 847 1681 609 1914 
Q 372 2147 372 2553 
Q 372 3047 722 3315 
Q 1072 3584 1716 3584 
Q 2034 3584 2315 3537 
Q 2597 3491 2834 3397 
z
" transform="scale(0.015625)"/>
     <path id="DejaVuSans-72" d="M 2631 2963 
Q 2534 3019 2420 3045 
Q 2306 3072 2169 3072 
Q 1681 3072 1420 2755 
Q 1159 2438 1159 1844 
L 1159 0 
L 581 0 
L 581 3500 
L 1159 3500 
L 1159 2956 
Q 1341 3275 1631 3429 
Q 1922 3584 2338 3584 
Q 2397 3584 2469 3576 
Q 2541 3569 2628 3553 
L 2631 2963 
z
" transform="scale(0.015625)"/>
    </defs>
    <use xlink:href="#DejaVuSans-41"/>
    <use xlink:href="#DejaVuSans-52" x="68.408203"/>
    <use xlink:href="#DejaVuSans-20" x="137.890625"/>
    <use xlink:href="#DejaVuSans-43" x="169.677734"/>
    <use xlink:href="#DejaVuSans-34" x="239.501953"/>
    <use xlink:href="#DejaVuSans-20" x="303.125"/>
    <use xlink:href="#DejaVuSans-73" x="334.912109"/>
    <use xlink:href="#DejaVuSans-70" x="387.011719"/>
    <use xlink:href="#DejaVuSans-69" x="450.488281"/>
    <use xlink:href="#DejaVuSans-63" x="478.271484"/>
    <use xlink:href="#DejaVuSans-6b" x="533.251953"/>
    <use xlink:href="#DejaVuSans-6c" x="591.162109"/>
    <use xlink:href="#DejaVuSans-65" x="618.945312"/>
    <use xlink:href="#DejaVuSans-20" x="680.46875"/>
    <use xlink:href="#DejaVuSans-72" x="712.255859"/>
    <use xlink:href="#DejaVuSans-61" x="753.369141"/>
    <use xlink:href="#DejaVuSans-74" x="814.648438"/>
    <use xlink:href="#DejaVuSans-69" x="853.857422"/>
    <use xlink:href="#DejaVuSans-6f" x="881.640625"/>
    <use xlink:href="#DejaVuSans-73" x="942.822266"/>
   </g>
  </g>
 </g>
 <defs>
  <clipPath id="p88d7e746b7">
   <rect x="41.190688" y="26.105371" width="223.2" height="221.76"/>
  </clipPath>
 </defs>
</svg>
