<?xml version="1.0" encoding="utf-8" standalone="no"?>
<!DOCTYPE svg PUBLIC "-//W3C//DTD SVG 1.1//EN"
  "http://www.w3.org/Graphics/SVG/1.1/DTD/svg11.dtd">
<svg xmlns:xlink="http://www.w3.org/1999/xlink" width="271.590688pt" height="283.578058pt" viewBox="0 0 271.590688 283.578058" xmlns="http://www.w3.org/2000/svg" version="1.1">
 <metadata>
  <rdf:RDF xmlns:dc="http://purl.org/dc/elements/1.1/" xmlns:cc="http://creativecommons.org/ns#" xmlns:rdf="http://www.w3.org/1999/02/22-rdf-syntax-ns#">
   <cc:Work>
    <dc:type rdf:resource="http://purl.org/dc/dcmitype/StillImage"/>
    <dc:date>2022-07-13T10:53:31.427962</dc:date>
    <dc:format>image/svg+xml</dc:format>
    <dc:creator>
     <cc:Agent>
      <dc:title>Matplotlib v3.5.1, https://matplotlib.org/</dc:title>
     </cc:Agent>
    </dc:creator>
   </cc:Work>
  </rdf:RDF>
 </metadata>
 <defs>
  <style type="text/css">*{stroke-linejoin: round; stroke-linecap: butt}</style>
 </defs>
 <g id="figure_1">
  <g id="patch_1">
   <path d="M 0 283.578058 
L 271.590688 283.578058 
L 271.590688 0 
L 0 0 
z
" style="fill: #ffffff; stroke: #ffffff; stroke-linejoin: miter"/>
  </g>
  <g id="axes_1">
   <g id="patch_2">
    <path d="M 41.190688 247.865371 
L 264.390688 247.865371 
L 264.390688 26.105371 
L 41.190688 26.105371 
z
" style="fill: #ebebeb"/>
   </g>
   <g id="matplotlib.axis_1">
    <g id="xtick_1">
     <g id="line2d_1">
      <path d="M 85.154324 247.865371 
L 85.154324 26.105371 
" clip-path="url(#pa2daff6746)" style="fill: none; stroke: #ffffff"/>
     </g>
     <g id="line2d_2">
      <path d="M 85.154324 247.865371 
" style="fill: none; stroke: #333333; stroke-width: 1.5"/>
      <defs>
       <path id="m6c22e54dfb" d="M 0 0 
L 0 2.75 
" style="stroke: #000000"/>
      </defs>
      <g>
       <use xlink:href="#m6c22e54dfb" x="85.154324" y="247.865371" style="fill: #333333; stroke: #000000"/>
      </g>
     </g>
     <g id="text_1">
      <!-- 40 -->
      <g style="fill: #4d4d4d" transform="translate(79.555324 259.501996)scale(0.088 -0.088)">
       <defs>
        <path id="DejaVuSans-34" d="M 2419 4116 
L 825 1625 
L 2419 1625 
L 2419 4116 
z
M 2253 4666 
L 3047 4666 
L 3047 1625 
L 3713 1625 
L 3713 1100 
L 3047 1100 
L 3047 0 
L 2419 0 
L 2419 1100 
L 313 1100 
L 313 1709 
L 2253 4666 
z
" transform="scale(0.015625)"/>
        <path id="DejaVuSans-30" d="M 2034 4250 
Q 1547 4250 1301 3770 
Q 1056 3291 1056 2328 
Q 1056 1369 1301 889 
Q 1547 409 2034 409 
Q 2525 409 2770 889 
Q 3016 1369 3016 2328 
Q 3016 3291 2770 3770 
Q 2525 4250 2034 4250 
z
M 2034 4750 
Q 2819 4750 3233 4129 
Q 3647 3509 3647 2328 
Q 3647 1150 3233 529 
Q 2819 -91 2034 -91 
Q 1250 -91 836 529 
Q 422 1150 422 2328 
Q 422 3509 836 4129 
Q 1250 4750 2034 4750 
z
" transform="scale(0.015625)"/>
       </defs>
       <use xlink:href="#DejaVuSans-34"/>
       <use xlink:href="#DejaVuSans-30" x="63.623047"/>
      </g>
     </g>
    </g>
    <g id="xtick_2">
     <g id="line2d_3">
      <path d="M 152.790688 247.865371 
L 152.790688 26.105371 
" clip-path="url(#pa2daff6746)" style="fill: none; stroke: #ffffff"/>
     </g>
     <g id="line2d_4">
      <path d="M 152.790688 247.865371 
" style="fill: none; stroke: #333333; stroke-width: 1.5"/>
      <g>
       <use xlink:href="#m6c22e54dfb" x="152.790688" y="247.865371" style="fill: #333333; stroke: #000000"/>
      </g>
     </g>
     <g id="text_2">
      <!-- 50 -->
      <g style="fill: #4d4d4d" transform="translate(147.191688 259.501996)scale(0.088 -0.088)">
       <defs>
        <path id="DejaVuSans-35" d="M 691 4666 
L 3169 4666 
L 3169 4134 
L 1269 4134 
L 1269 2991 
Q 1406 3038 1543 3061 
Q 1681 3084 1819 3084 
Q 2600 3084 3056 2656 
Q 3513 2228 3513 1497 
Q 3513 744 3044 326 
Q 2575 -91 1722 -91 
Q 1428 -91 1123 -41 
Q 819 9 494 109 
L 494 744 
Q 775 591 1075 516 
Q 1375 441 1709 441 
Q 2250 441 2565 725 
Q 2881 1009 2881 1497 
Q 2881 1984 2565 2268 
Q 2250 2553 1709 2553 
Q 1456 2553 1204 2497 
Q 953 2441 691 2322 
L 691 4666 
z
" transform="scale(0.015625)"/>
       </defs>
       <use xlink:href="#DejaVuSans-35"/>
       <use xlink:href="#DejaVuSans-30" x="63.623047"/>
      </g>
     </g>
    </g>
    <g id="xtick_3">
     <g id="line2d_5">
      <path d="M 220.427051 247.865371 
L 220.427051 26.105371 
" clip-path="url(#pa2daff6746)" style="fill: none; stroke: #ffffff"/>
     </g>
     <g id="line2d_6">
      <path d="M 220.427051 247.865371 
" style="fill: none; stroke: #333333; stroke-width: 1.5"/>
      <g>
       <use xlink:href="#m6c22e54dfb" x="220.427051" y="247.865371" style="fill: #333333; stroke: #000000"/>
      </g>
     </g>
     <g id="text_3">
      <!-- 60 -->
      <g style="fill: #4d4d4d" transform="translate(214.828051 259.501996)scale(0.088 -0.088)">
       <defs>
        <path id="DejaVuSans-36" d="M 2113 2584 
Q 1688 2584 1439 2293 
Q 1191 2003 1191 1497 
Q 1191 994 1439 701 
Q 1688 409 2113 409 
Q 2538 409 2786 701 
Q 3034 994 3034 1497 
Q 3034 2003 2786 2293 
Q 2538 2584 2113 2584 
z
M 3366 4563 
L 3366 3988 
Q 3128 4100 2886 4159 
Q 2644 4219 2406 4219 
Q 1781 4219 1451 3797 
Q 1122 3375 1075 2522 
Q 1259 2794 1537 2939 
Q 1816 3084 2150 3084 
Q 2853 3084 3261 2657 
Q 3669 2231 3669 1497 
Q 3669 778 3244 343 
Q 2819 -91 2113 -91 
Q 1303 -91 875 529 
Q 447 1150 447 2328 
Q 447 3434 972 4092 
Q 1497 4750 2381 4750 
Q 2619 4750 2861 4703 
Q 3103 4656 3366 4563 
z
" transform="scale(0.015625)"/>
       </defs>
       <use xlink:href="#DejaVuSans-36"/>
       <use xlink:href="#DejaVuSans-30" x="63.623047"/>
      </g>
     </g>
    </g>
    <g id="xtick_4">
     <g id="line2d_7">
      <path d="M 51.336142 247.865371 
L 51.336142 26.105371 
" clip-path="url(#pa2daff6746)" style="fill: none; stroke: #ffffff; stroke-width: 0.5"/>
     </g>
    </g>
    <g id="xtick_5">
     <g id="line2d_8">
      <path d="M 118.972506 247.865371 
L 118.972506 26.105371 
" clip-path="url(#pa2daff6746)" style="fill: none; stroke: #ffffff; stroke-width: 0.5"/>
     </g>
    </g>
    <g id="xtick_6">
     <g id="line2d_9">
      <path d="M 186.608869 247.865371 
L 186.608869 26.105371 
" clip-path="url(#pa2daff6746)" style="fill: none; stroke: #ffffff; stroke-width: 0.5"/>
     </g>
    </g>
    <g id="xtick_7">
     <g id="line2d_10">
      <path d="M 254.245233 247.865371 
L 254.245233 26.105371 
" clip-path="url(#pa2daff6746)" style="fill: none; stroke: #ffffff; stroke-width: 0.5"/>
     </g>
    </g>
    <g id="text_4">
     <!-- Timepoint -->
     <g transform="translate(121.707016 274.090402)scale(0.11 -0.11)">
      <defs>
       <path id="DejaVuSans-54" d="M -19 4666 
L 3928 4666 
L 3928 4134 
L 2272 4134 
L 2272 0 
L 1638 0 
L 1638 4134 
L -19 4134 
L -19 4666 
z
" transform="scale(0.015625)"/>
       <path id="DejaVuSans-69" d="M 603 3500 
L 1178 3500 
L 1178 0 
L 603 0 
L 603 3500 
z
M 603 4863 
L 1178 4863 
L 1178 4134 
L 603 4134 
L 603 4863 
z
" transform="scale(0.015625)"/>
       <path id="DejaVuSans-6d" d="M 3328 2828 
Q 3544 3216 3844 3400 
Q 4144 3584 4550 3584 
Q 5097 3584 5394 3201 
Q 5691 2819 5691 2113 
L 5691 0 
L 5113 0 
L 5113 2094 
Q 5113 2597 4934 2840 
Q 4756 3084 4391 3084 
Q 3944 3084 3684 2787 
Q 3425 2491 3425 1978 
L 3425 0 
L 2847 0 
L 2847 2094 
Q 2847 2600 2669 2842 
Q 2491 3084 2119 3084 
Q 1678 3084 1418 2786 
Q 1159 2488 1159 1978 
L 1159 0 
L 581 0 
L 581 3500 
L 1159 3500 
L 1159 2956 
Q 1356 3278 1631 3431 
Q 1906 3584 2284 3584 
Q 2666 3584 2933 3390 
Q 3200 3197 3328 2828 
z
" transform="scale(0.015625)"/>
       <path id="DejaVuSans-65" d="M 3597 1894 
L 3597 1613 
L 953 1613 
Q 991 1019 1311 708 
Q 1631 397 2203 397 
Q 2534 397 2845 478 
Q 3156 559 3463 722 
L 3463 178 
Q 3153 47 2828 -22 
Q 2503 -91 2169 -91 
Q 1331 -91 842 396 
Q 353 884 353 1716 
Q 353 2575 817 3079 
Q 1281 3584 2069 3584 
Q 2775 3584 3186 3129 
Q 3597 2675 3597 1894 
z
M 3022 2063 
Q 3016 2534 2758 2815 
Q 2500 3097 2075 3097 
Q 1594 3097 1305 2825 
Q 1016 2553 972 2059 
L 3022 2063 
z
" transform="scale(0.015625)"/>
       <path id="DejaVuSans-70" d="M 1159 525 
L 1159 -1331 
L 581 -1331 
L 581 3500 
L 1159 3500 
L 1159 2969 
Q 1341 3281 1617 3432 
Q 1894 3584 2278 3584 
Q 2916 3584 3314 3078 
Q 3713 2572 3713 1747 
Q 3713 922 3314 415 
Q 2916 -91 2278 -91 
Q 1894 -91 1617 61 
Q 1341 213 1159 525 
z
M 3116 1747 
Q 3116 2381 2855 2742 
Q 2594 3103 2138 3103 
Q 1681 3103 1420 2742 
Q 1159 2381 1159 1747 
Q 1159 1113 1420 752 
Q 1681 391 2138 391 
Q 2594 391 2855 752 
Q 3116 1113 3116 1747 
z
" transform="scale(0.015625)"/>
       <path id="DejaVuSans-6f" d="M 1959 3097 
Q 1497 3097 1228 2736 
Q 959 2375 959 1747 
Q 959 1119 1226 758 
Q 1494 397 1959 397 
Q 2419 397 2687 759 
Q 2956 1122 2956 1747 
Q 2956 2369 2687 2733 
Q 2419 3097 1959 3097 
z
M 1959 3584 
Q 2709 3584 3137 3096 
Q 3566 2609 3566 1747 
Q 3566 888 3137 398 
Q 2709 -91 1959 -91 
Q 1206 -91 779 398 
Q 353 888 353 1747 
Q 353 2609 779 3096 
Q 1206 3584 1959 3584 
z
" transform="scale(0.015625)"/>
       <path id="DejaVuSans-6e" d="M 3513 2113 
L 3513 0 
L 2938 0 
L 2938 2094 
Q 2938 2591 2744 2837 
Q 2550 3084 2163 3084 
Q 1697 3084 1428 2787 
Q 1159 2491 1159 1978 
L 1159 0 
L 581 0 
L 581 3500 
L 1159 3500 
L 1159 2956 
Q 1366 3272 1645 3428 
Q 1925 3584 2291 3584 
Q 2894 3584 3203 3211 
Q 3513 2838 3513 2113 
z
" transform="scale(0.015625)"/>
       <path id="DejaVuSans-74" d="M 1172 4494 
L 1172 3500 
L 2356 3500 
L 2356 3053 
L 1172 3053 
L 1172 1153 
Q 1172 725 1289 603 
Q 1406 481 1766 481 
L 2356 481 
L 2356 0 
L 1766 0 
Q 1100 0 847 248 
Q 594 497 594 1153 
L 594 3053 
L 172 3053 
L 172 3500 
L 594 3500 
L 594 4494 
L 1172 4494 
z
" transform="scale(0.015625)"/>
      </defs>
      <use xlink:href="#DejaVuSans-54"/>
      <use xlink:href="#DejaVuSans-69" x="57.958984"/>
      <use xlink:href="#DejaVuSans-6d" x="85.742188"/>
      <use xlink:href="#DejaVuSans-65" x="183.154297"/>
      <use xlink:href="#DejaVuSans-70" x="244.677734"/>
      <use xlink:href="#DejaVuSans-6f" x="308.154297"/>
      <use xlink:href="#DejaVuSans-69" x="369.335938"/>
      <use xlink:href="#DejaVuSans-6e" x="397.119141"/>
      <use xlink:href="#DejaVuSans-74" x="460.498047"/>
     </g>
    </g>
   </g>
   <g id="matplotlib.axis_2">
    <g id="ytick_1">
     <g id="line2d_11">
      <path d="M 41.190688 204.185371 
L 264.390688 204.185371 
" clip-path="url(#pa2daff6746)" style="fill: none; stroke: #ffffff"/>
     </g>
     <g id="line2d_12">
      <path d="M 41.190688 204.185371 
" style="fill: none; stroke: #333333; stroke-width: 1.5"/>
      <defs>
       <path id="m1c4b855e96" d="M 0 0 
L -2.75 0 
" style="stroke: #000000"/>
      </defs>
      <g>
       <use xlink:href="#m1c4b855e96" x="41.190688" y="204.185371" style="fill: #333333; stroke: #000000"/>
      </g>
     </g>
     <g id="text_5">
      <!-- 2.5 -->
      <g style="fill: #4d4d4d" transform="translate(22.245937 206.613621)scale(0.088 -0.088)">
       <defs>
        <path id="DejaVuSans-32" d="M 1228 531 
L 3431 531 
L 3431 0 
L 469 0 
L 469 531 
Q 828 903 1448 1529 
Q 2069 2156 2228 2338 
Q 2531 2678 2651 2914 
Q 2772 3150 2772 3378 
Q 2772 3750 2511 3984 
Q 2250 4219 1831 4219 
Q 1534 4219 1204 4116 
Q 875 4013 500 3803 
L 500 4441 
Q 881 4594 1212 4672 
Q 1544 4750 1819 4750 
Q 2544 4750 2975 4387 
Q 3406 4025 3406 3419 
Q 3406 3131 3298 2873 
Q 3191 2616 2906 2266 
Q 2828 2175 2409 1742 
Q 1991 1309 1228 531 
z
" transform="scale(0.015625)"/>
        <path id="DejaVuSans-2e" d="M 684 794 
L 1344 794 
L 1344 0 
L 684 0 
L 684 794 
z
" transform="scale(0.015625)"/>
       </defs>
       <use xlink:href="#DejaVuSans-32"/>
       <use xlink:href="#DejaVuSans-2e" x="63.623047"/>
       <use xlink:href="#DejaVuSans-35" x="95.410156"/>
      </g>
     </g>
    </g>
    <g id="ytick_2">
     <g id="line2d_13">
      <path d="M 41.190688 148.185371 
L 264.390688 148.185371 
" clip-path="url(#pa2daff6746)" style="fill: none; stroke: #ffffff"/>
     </g>
     <g id="line2d_14">
      <path d="M 41.190688 148.185371 
" style="fill: none; stroke: #333333; stroke-width: 1.5"/>
      <g>
       <use xlink:href="#m1c4b855e96" x="41.190688" y="148.185371" style="fill: #333333; stroke: #000000"/>
      </g>
     </g>
     <g id="text_6">
      <!-- 5 -->
      <g style="fill: #4d4d4d" transform="translate(30.641687 150.613621)scale(0.088 -0.088)">
       <use xlink:href="#DejaVuSans-35"/>
      </g>
     </g>
    </g>
    <g id="ytick_3">
     <g id="line2d_15">
      <path d="M 41.190688 92.185371 
L 264.390688 92.185371 
" clip-path="url(#pa2daff6746)" style="fill: none; stroke: #ffffff"/>
     </g>
     <g id="line2d_16">
      <path d="M 41.190688 92.185371 
" style="fill: none; stroke: #333333; stroke-width: 1.5"/>
      <g>
       <use xlink:href="#m1c4b855e96" x="41.190688" y="92.185371" style="fill: #333333; stroke: #000000"/>
      </g>
     </g>
     <g id="text_7">
      <!-- 7.5 -->
      <g style="fill: #4d4d4d" transform="translate(22.245937 94.613621)scale(0.088 -0.088)">
       <defs>
        <path id="DejaVuSans-37" d="M 525 4666 
L 3525 4666 
L 3525 4397 
L 1831 0 
L 1172 0 
L 2766 4134 
L 525 4134 
L 525 4666 
z
" transform="scale(0.015625)"/>
       </defs>
       <use xlink:href="#DejaVuSans-37"/>
       <use xlink:href="#DejaVuSans-2e" x="63.623047"/>
       <use xlink:href="#DejaVuSans-35" x="95.410156"/>
      </g>
     </g>
    </g>
    <g id="ytick_4">
     <g id="line2d_17">
      <path d="M 41.190688 36.185371 
L 264.390688 36.185371 
" clip-path="url(#pa2daff6746)" style="fill: none; stroke: #ffffff"/>
     </g>
     <g id="line2d_18">
      <path d="M 41.190688 36.185371 
" style="fill: none; stroke: #333333; stroke-width: 1.5"/>
      <g>
       <use xlink:href="#m1c4b855e96" x="41.190688" y="36.185371" style="fill: #333333; stroke: #000000"/>
      </g>
     </g>
     <g id="text_8">
      <!-- 10 -->
      <g style="fill: #4d4d4d" transform="translate(25.042687 38.613621)scale(0.088 -0.088)">
       <defs>
        <path id="DejaVuSans-31" d="M 794 531 
L 1825 531 
L 1825 4091 
L 703 3866 
L 703 4441 
L 1819 4666 
L 2450 4666 
L 2450 531 
L 3481 531 
L 3481 0 
L 794 0 
L 794 531 
z
" transform="scale(0.015625)"/>
       </defs>
       <use xlink:href="#DejaVuSans-31"/>
       <use xlink:href="#DejaVuSans-30" x="63.623047"/>
      </g>
     </g>
    </g>
    <g id="ytick_5">
     <g id="line2d_19">
      <path d="M 41.190688 232.185371 
L 264.390688 232.185371 
" clip-path="url(#pa2daff6746)" style="fill: none; stroke: #ffffff; stroke-width: 0.5"/>
     </g>
    </g>
    <g id="ytick_6">
     <g id="line2d_20">
      <path d="M 41.190688 176.185371 
L 264.390688 176.185371 
" clip-path="url(#pa2daff6746)" style="fill: none; stroke: #ffffff; stroke-width: 0.5"/>
     </g>
    </g>
    <g id="ytick_7">
     <g id="line2d_21">
      <path d="M 41.190688 120.185371 
L 264.390688 120.185371 
" clip-path="url(#pa2daff6746)" style="fill: none; stroke: #ffffff; stroke-width: 0.5"/>
     </g>
    </g>
    <g id="ytick_8">
     <g id="line2d_22">
      <path d="M 41.190688 64.185371 
L 264.390688 64.185371 
" clip-path="url(#pa2daff6746)" style="fill: none; stroke: #ffffff; stroke-width: 0.5"/>
     </g>
    </g>
    <g id="text_9">
     <!-- Spickle Ratio -->
     <g transform="translate(15.558281 171.043574)rotate(-90)scale(0.11 -0.11)">
      <defs>
       <path id="DejaVuSans-53" d="M 3425 4513 
L 3425 3897 
Q 3066 4069 2747 4153 
Q 2428 4238 2131 4238 
Q 1616 4238 1336 4038 
Q 1056 3838 1056 3469 
Q 1056 3159 1242 3001 
Q 1428 2844 1947 2747 
L 2328 2669 
Q 3034 2534 3370 2195 
Q 3706 1856 3706 1288 
Q 3706 609 3251 259 
Q 2797 -91 1919 -91 
Q 1588 -91 1214 -16 
Q 841 59 441 206 
L 441 856 
Q 825 641 1194 531 
Q 1563 422 1919 422 
Q 2459 422 2753 634 
Q 3047 847 3047 1241 
Q 3047 1584 2836 1778 
Q 2625 1972 2144 2069 
L 1759 2144 
Q 1053 2284 737 2584 
Q 422 2884 422 3419 
Q 422 4038 858 4394 
Q 1294 4750 2059 4750 
Q 2388 4750 2728 4690 
Q 3069 4631 3425 4513 
z
" transform="scale(0.015625)"/>
       <path id="DejaVuSans-63" d="M 3122 3366 
L 3122 2828 
Q 2878 2963 2633 3030 
Q 2388 3097 2138 3097 
Q 1578 3097 1268 2742 
Q 959 2388 959 1747 
Q 959 1106 1268 751 
Q 1578 397 2138 397 
Q 2388 397 2633 464 
Q 2878 531 3122 666 
L 3122 134 
Q 2881 22 2623 -34 
Q 2366 -91 2075 -91 
Q 1284 -91 818 406 
Q 353 903 353 1747 
Q 353 2603 823 3093 
Q 1294 3584 2113 3584 
Q 2378 3584 2631 3529 
Q 2884 3475 3122 3366 
z
" transform="scale(0.015625)"/>
       <path id="DejaVuSans-6b" d="M 581 4863 
L 1159 4863 
L 1159 1991 
L 2875 3500 
L 3609 3500 
L 1753 1863 
L 3688 0 
L 2938 0 
L 1159 1709 
L 1159 0 
L 581 0 
L 581 4863 
z
" transform="scale(0.015625)"/>
       <path id="DejaVuSans-6c" d="M 603 4863 
L 1178 4863 
L 1178 0 
L 603 0 
L 603 4863 
z
" transform="scale(0.015625)"/>
       <path id="DejaVuSans-20" transform="scale(0.015625)"/>
       <path id="DejaVuSans-52" d="M 2841 2188 
Q 3044 2119 3236 1894 
Q 3428 1669 3622 1275 
L 4263 0 
L 3584 0 
L 2988 1197 
Q 2756 1666 2539 1819 
Q 2322 1972 1947 1972 
L 1259 1972 
L 1259 0 
L 628 0 
L 628 4666 
L 2053 4666 
Q 2853 4666 3247 4331 
Q 3641 3997 3641 3322 
Q 3641 2881 3436 2590 
Q 3231 2300 2841 2188 
z
M 1259 4147 
L 1259 2491 
L 2053 2491 
Q 2509 2491 2742 2702 
Q 2975 2913 2975 3322 
Q 2975 3731 2742 3939 
Q 2509 4147 2053 4147 
L 1259 4147 
z
" transform="scale(0.015625)"/>
       <path id="DejaVuSans-61" d="M 2194 1759 
Q 1497 1759 1228 1600 
Q 959 1441 959 1056 
Q 959 750 1161 570 
Q 1363 391 1709 391 
Q 2188 391 2477 730 
Q 2766 1069 2766 1631 
L 2766 1759 
L 2194 1759 
z
M 3341 1997 
L 3341 0 
L 2766 0 
L 2766 531 
Q 2569 213 2275 61 
Q 1981 -91 1556 -91 
Q 1019 -91 701 211 
Q 384 513 384 1019 
Q 384 1609 779 1909 
Q 1175 2209 1959 2209 
L 2766 2209 
L 2766 2266 
Q 2766 2663 2505 2880 
Q 2244 3097 1772 3097 
Q 1472 3097 1187 3025 
Q 903 2953 641 2809 
L 641 3341 
Q 956 3463 1253 3523 
Q 1550 3584 1831 3584 
Q 2591 3584 2966 3190 
Q 3341 2797 3341 1997 
z
" transform="scale(0.015625)"/>
      </defs>
      <use xlink:href="#DejaVuSans-53"/>
      <use xlink:href="#DejaVuSans-70" x="63.476562"/>
      <use xlink:href="#DejaVuSans-69" x="126.953125"/>
      <use xlink:href="#DejaVuSans-63" x="154.736328"/>
      <use xlink:href="#DejaVuSans-6b" x="209.716797"/>
      <use xlink:href="#DejaVuSans-6c" x="267.626953"/>
      <use xlink:href="#DejaVuSans-65" x="295.410156"/>
      <use xlink:href="#DejaVuSans-20" x="356.933594"/>
      <use xlink:href="#DejaVuSans-52" x="388.720703"/>
      <use xlink:href="#DejaVuSans-61" x="455.953125"/>
      <use xlink:href="#DejaVuSans-74" x="517.232422"/>
      <use xlink:href="#DejaVuSans-69" x="556.441406"/>
      <use xlink:href="#DejaVuSans-6f" x="584.224609"/>
     </g>
    </g>
   </g>
   <g id="PathCollection_1">
    <path d="M 71.627051 225.6335 
C 72.097111 225.6335 72.547982 225.446743 72.880365 225.114361 
C 73.212748 224.781978 73.399505 224.331107 73.399505 223.861046 
C 73.399505 223.390986 73.212748 222.940115 72.880365 222.607732 
C 72.547982 222.275349 72.097111 222.088593 71.627051 222.088593 
C 71.156991 222.088593 70.70612 222.275349 70.373737 222.607732 
C 70.041354 222.940115 69.854597 223.390986 69.854597 223.861046 
C 69.854597 224.331107 70.041354 224.781978 70.373737 225.114361 
C 70.70612 225.446743 71.156991 225.6335 71.627051 225.6335 
z
" clip-path="url(#pa2daff6746)" style="stroke: #000000; stroke-width: 0.886227"/>
    <path d="M 78.390688 192.440583 
C 78.860748 192.440583 79.311619 192.253826 79.644002 191.921443 
C 79.976384 191.589061 80.163141 191.13819 80.163141 190.668129 
C 80.163141 190.198069 79.976384 189.747198 79.644002 189.414815 
C 79.311619 189.082432 78.860748 188.895675 78.390688 188.895675 
C 77.920627 188.895675 77.469756 189.082432 77.137373 189.414815 
C 76.804991 189.747198 76.618234 190.198069 76.618234 190.668129 
C 76.618234 191.13819 76.804991 191.589061 77.137373 191.921443 
C 77.469756 192.253826 77.920627 192.440583 78.390688 192.440583 
z
" clip-path="url(#pa2daff6746)" style="stroke: #000000; stroke-width: 0.886227"/>
    <path d="M 85.154324 194.193119 
C 85.624384 194.193119 86.075255 194.006362 86.407638 193.673979 
C 86.740021 193.341596 86.926778 192.890725 86.926778 192.420665 
C 86.926778 191.950605 86.740021 191.499733 86.407638 191.167351 
C 86.075255 190.834968 85.624384 190.648211 85.154324 190.648211 
C 84.684264 190.648211 84.233393 190.834968 83.90101 191.167351 
C 83.568627 191.499733 83.38187 191.950605 83.38187 192.420665 
C 83.38187 192.890725 83.568627 193.341596 83.90101 193.673979 
C 84.233393 194.006362 84.684264 194.193119 85.154324 194.193119 
z
" clip-path="url(#pa2daff6746)" style="stroke: #000000; stroke-width: 0.886227"/>
    <path d="M 91.91796 196.182947 
C 92.38802 196.182947 92.838892 195.99619 93.171274 195.663807 
C 93.503657 195.331424 93.690414 194.880553 93.690414 194.410493 
C 93.690414 193.940433 93.503657 193.489562 93.171274 193.157179 
C 92.838892 192.824796 92.38802 192.638039 91.91796 192.638039 
C 91.4479 192.638039 90.997029 192.824796 90.664646 193.157179 
C 90.332263 193.489562 90.145506 193.940433 90.145506 194.410493 
C 90.145506 194.880553 90.332263 195.331424 90.664646 195.663807 
C 90.997029 195.99619 91.4479 196.182947 91.91796 196.182947 
z
" clip-path="url(#pa2daff6746)" style="stroke: #000000; stroke-width: 0.886227"/>
    <path d="M 98.681597 136.154392 
C 99.151657 136.154392 99.602528 135.967636 99.934911 135.635253 
C 100.267294 135.30287 100.45405 134.851999 100.45405 134.381939 
C 100.45405 133.911878 100.267294 133.461007 99.934911 133.128624 
C 99.602528 132.796242 99.151657 132.609485 98.681597 132.609485 
C 98.211536 132.609485 97.760665 132.796242 97.428282 133.128624 
C 97.0959 133.461007 96.909143 133.911878 96.909143 134.381939 
C 96.909143 134.851999 97.0959 135.30287 97.428282 135.635253 
C 97.760665 135.967636 98.211536 136.154392 98.681597 136.154392 
z
" clip-path="url(#pa2daff6746)" style="stroke: #000000; stroke-width: 0.886227"/>
    <path d="M 105.445233 137.128103 
C 105.915293 137.128103 106.366164 136.941346 106.698547 136.608963 
C 107.03093 136.276581 107.217687 135.82571 107.217687 135.355649 
C 107.217687 134.885589 107.03093 134.434718 106.698547 134.102335 
C 106.366164 133.769952 105.915293 133.583196 105.445233 133.583196 
C 104.975173 133.583196 104.524302 133.769952 104.191919 134.102335 
C 103.859536 134.434718 103.672779 134.885589 103.672779 135.355649 
C 103.672779 135.82571 103.859536 136.276581 104.191919 136.608963 
C 104.524302 136.941346 104.975173 137.128103 105.445233 137.128103 
z
" clip-path="url(#pa2daff6746)" style="stroke: #000000; stroke-width: 0.886227"/>
    <path d="M 112.208869 171.418902 
C 112.67893 171.418902 113.129801 171.232145 113.462183 170.899763 
C 113.794566 170.56738 113.981323 170.116509 113.981323 169.646449 
C 113.981323 169.176388 113.794566 168.725517 113.462183 168.393134 
C 113.129801 168.060752 112.67893 167.873995 112.208869 167.873995 
C 111.738809 167.873995 111.287938 168.060752 110.955555 168.393134 
C 110.623172 168.725517 110.436415 169.176388 110.436415 169.646449 
C 110.436415 170.116509 110.623172 170.56738 110.955555 170.899763 
C 111.287938 171.232145 111.738809 171.418902 112.208869 171.418902 
z
" clip-path="url(#pa2daff6746)" style="stroke: #000000; stroke-width: 0.886227"/>
    <path d="M 118.972506 205.723515 
C 119.442566 205.723515 119.893437 205.536758 120.22582 205.204375 
C 120.558203 204.871992 120.74496 204.421121 120.74496 203.951061 
C 120.74496 203.481001 120.558203 203.03013 120.22582 202.697747 
C 119.893437 202.365364 119.442566 202.178607 118.972506 202.178607 
C 118.502445 202.178607 118.051574 202.365364 117.719192 202.697747 
C 117.386809 203.03013 117.200052 203.481001 117.200052 203.951061 
C 117.200052 204.421121 117.386809 204.871992 117.719192 205.204375 
C 118.051574 205.536758 118.502445 205.723515 118.972506 205.723515 
z
" clip-path="url(#pa2daff6746)" style="stroke: #000000; stroke-width: 0.886227"/>
    <path d="M 125.736142 233.99666 
C 126.206202 233.99666 126.657073 233.809903 126.989456 233.47752 
C 127.321839 233.145137 127.508596 232.694266 127.508596 232.224206 
C 127.508596 231.754145 127.321839 231.303274 126.989456 230.970892 
C 126.657073 230.638509 126.206202 230.451752 125.736142 230.451752 
C 125.266082 230.451752 124.815211 230.638509 124.482828 230.970892 
C 124.150445 231.303274 123.963688 231.754145 123.963688 232.224206 
C 123.963688 232.694266 124.150445 233.145137 124.482828 233.47752 
C 124.815211 233.809903 125.266082 233.99666 125.736142 233.99666 
z
" clip-path="url(#pa2daff6746)" style="stroke: #000000; stroke-width: 0.886227"/>
    <path d="M 132.499778 155.852561 
C 132.969839 155.852561 133.42071 155.665804 133.753093 155.333422 
C 134.085475 155.001039 134.272232 154.550168 134.272232 154.080108 
C 134.272232 153.610047 134.085475 153.159176 133.753093 152.826793 
C 133.42071 152.494411 132.969839 152.307654 132.499778 152.307654 
C 132.029718 152.307654 131.578847 152.494411 131.246464 152.826793 
C 130.914081 153.159176 130.727325 153.610047 130.727325 154.080108 
C 130.727325 154.550168 130.914081 155.001039 131.246464 155.333422 
C 131.578847 155.665804 132.029718 155.852561 132.499778 155.852561 
z
" clip-path="url(#pa2daff6746)" style="stroke: #000000; stroke-width: 0.886227"/>
    <path d="M 139.263415 164.918113 
C 139.733475 164.918113 140.184346 164.731356 140.516729 164.398974 
C 140.849112 164.066591 141.035869 163.61572 141.035869 163.14566 
C 141.035869 162.675599 140.849112 162.224728 140.516729 161.892345 
C 140.184346 161.559963 139.733475 161.373206 139.263415 161.373206 
C 138.793355 161.373206 138.342483 161.559963 138.010101 161.892345 
C 137.677718 162.224728 137.490961 162.675599 137.490961 163.14566 
C 137.490961 163.61572 137.677718 164.066591 138.010101 164.398974 
C 138.342483 164.731356 138.793355 164.918113 139.263415 164.918113 
z
" clip-path="url(#pa2daff6746)" style="stroke: #000000; stroke-width: 0.886227"/>
    <path d="M 146.027051 165.613739 
C 146.497111 165.613739 146.947982 165.426982 147.280365 165.094599 
C 147.612748 164.762216 147.799505 164.311345 147.799505 163.841285 
C 147.799505 163.371224 147.612748 162.920353 147.280365 162.587971 
C 146.947982 162.255588 146.497111 162.068831 146.027051 162.068831 
C 145.556991 162.068831 145.10612 162.255588 144.773737 162.587971 
C 144.441354 162.920353 144.254597 163.371224 144.254597 163.841285 
C 144.254597 164.311345 144.441354 164.762216 144.773737 165.094599 
C 145.10612 165.426982 145.556991 165.613739 146.027051 165.613739 
z
" clip-path="url(#pa2daff6746)" style="stroke: #000000; stroke-width: 0.886227"/>
    <path d="M 152.790688 142.808888 
C 153.260748 142.808888 153.711619 142.622131 154.044002 142.289749 
C 154.376384 141.957366 154.563141 141.506495 154.563141 141.036435 
C 154.563141 140.566374 154.376384 140.115503 154.044002 139.78312 
C 153.711619 139.450738 153.260748 139.263981 152.790688 139.263981 
C 152.320627 139.263981 151.869756 139.450738 151.537373 139.78312 
C 151.204991 140.115503 151.018234 140.566374 151.018234 141.036435 
C 151.018234 141.506495 151.204991 141.957366 151.537373 142.289749 
C 151.869756 142.622131 152.320627 142.808888 152.790688 142.808888 
z
" clip-path="url(#pa2daff6746)" style="stroke: #000000; stroke-width: 0.886227"/>
    <path d="M 159.554324 89.860264 
C 160.024384 89.860264 160.475255 89.673507 160.807638 89.341124 
C 161.140021 89.008741 161.326778 88.55787 161.326778 88.08781 
C 161.326778 87.617749 161.140021 87.166878 160.807638 86.834496 
C 160.475255 86.502113 160.024384 86.315356 159.554324 86.315356 
C 159.084264 86.315356 158.633393 86.502113 158.30101 86.834496 
C 157.968627 87.166878 157.78187 87.617749 157.78187 88.08781 
C 157.78187 88.55787 157.968627 89.008741 158.30101 89.341124 
C 158.633393 89.673507 159.084264 89.860264 159.554324 89.860264 
z
" clip-path="url(#pa2daff6746)" style="stroke: #000000; stroke-width: 0.886227"/>
    <path d="M 166.31796 133.057569 
C 166.78802 133.057569 167.238892 132.870812 167.571274 132.538429 
C 167.903657 132.206046 168.090414 131.755175 168.090414 131.285115 
C 168.090414 130.815055 167.903657 130.364184 167.571274 130.031801 
C 167.238892 129.699418 166.78802 129.512661 166.31796 129.512661 
C 165.8479 129.512661 165.397029 129.699418 165.064646 130.031801 
C 164.732263 130.364184 164.545506 130.815055 164.545506 131.285115 
C 164.545506 131.755175 164.732263 132.206046 165.064646 132.538429 
C 165.397029 132.870812 165.8479 133.057569 166.31796 133.057569 
z
" clip-path="url(#pa2daff6746)" style="stroke: #000000; stroke-width: 0.886227"/>
    <path d="M 173.081597 136.89579 
C 173.551657 136.89579 174.002528 136.709033 174.334911 136.37665 
C 174.667294 136.044267 174.85405 135.593396 174.85405 135.123336 
C 174.85405 134.653276 174.667294 134.202405 174.334911 133.870022 
C 174.002528 133.537639 173.551657 133.350882 173.081597 133.350882 
C 172.611536 133.350882 172.160665 133.537639 171.828282 133.870022 
C 171.4959 134.202405 171.309143 134.653276 171.309143 135.123336 
C 171.309143 135.593396 171.4959 136.044267 171.828282 136.37665 
C 172.160665 136.709033 172.611536 136.89579 173.081597 136.89579 
z
" clip-path="url(#pa2daff6746)" style="stroke: #000000; stroke-width: 0.886227"/>
    <path d="M 179.845233 159.100682 
C 180.315293 159.100682 180.766164 158.913925 181.098547 158.581542 
C 181.43093 158.249159 181.617687 157.798288 181.617687 157.328228 
C 181.617687 156.858168 181.43093 156.407297 181.098547 156.074914 
C 180.766164 155.742531 180.315293 155.555774 179.845233 155.555774 
C 179.375173 155.555774 178.924302 155.742531 178.591919 156.074914 
C 178.259536 156.407297 178.072779 156.858168 178.072779 157.328228 
C 178.072779 157.798288 178.259536 158.249159 178.591919 158.581542 
C 178.924302 158.913925 179.375173 159.100682 179.845233 159.100682 
z
" clip-path="url(#pa2daff6746)" style="stroke: #000000; stroke-width: 0.886227"/>
    <path d="M 186.608869 210.660115 
C 187.07893 210.660115 187.529801 210.473358 187.862183 210.140975 
C 188.194566 209.808592 188.381323 209.357721 188.381323 208.887661 
C 188.381323 208.417601 188.194566 207.966729 187.862183 207.634347 
C 187.529801 207.301964 187.07893 207.115207 186.608869 207.115207 
C 186.138809 207.115207 185.687938 207.301964 185.355555 207.634347 
C 185.023172 207.966729 184.836415 208.417601 184.836415 208.887661 
C 184.836415 209.357721 185.023172 209.808592 185.355555 210.140975 
C 185.687938 210.473358 186.138809 210.660115 186.608869 210.660115 
z
" clip-path="url(#pa2daff6746)" style="stroke: #000000; stroke-width: 0.886227"/>
    <path d="M 193.372506 212.241425 
C 193.842566 212.241425 194.293437 212.054668 194.62582 211.722285 
C 194.958203 211.389903 195.14496 210.939031 195.14496 210.468971 
C 195.14496 209.998911 194.958203 209.54804 194.62582 209.215657 
C 194.293437 208.883274 193.842566 208.696517 193.372506 208.696517 
C 192.902445 208.696517 192.451574 208.883274 192.119192 209.215657 
C 191.786809 209.54804 191.600052 209.998911 191.600052 210.468971 
C 191.600052 210.939031 191.786809 211.389903 192.119192 211.722285 
C 192.451574 212.054668 192.902445 212.241425 193.372506 212.241425 
z
" clip-path="url(#pa2daff6746)" style="stroke: #000000; stroke-width: 0.886227"/>
    <path d="M 200.136142 185.594188 
C 200.606202 185.594188 201.057073 185.407431 201.389456 185.075048 
C 201.721839 184.742666 201.908596 184.291795 201.908596 183.821734 
C 201.908596 183.351674 201.721839 182.900803 201.389456 182.56842 
C 201.057073 182.236037 200.606202 182.049281 200.136142 182.049281 
C 199.666082 182.049281 199.215211 182.236037 198.882828 182.56842 
C 198.550445 182.900803 198.363688 183.351674 198.363688 183.821734 
C 198.363688 184.291795 198.550445 184.742666 198.882828 185.075048 
C 199.215211 185.407431 199.666082 185.594188 200.136142 185.594188 
z
" clip-path="url(#pa2daff6746)" style="stroke: #000000; stroke-width: 0.886227"/>
    <path d="M 206.899778 184.716445 
C 207.369839 184.716445 207.82071 184.529688 208.153093 184.197306 
C 208.485475 183.864923 208.672232 183.414052 208.672232 182.943991 
C 208.672232 182.473931 208.485475 182.02306 208.153093 181.690677 
C 207.82071 181.358294 207.369839 181.171538 206.899778 181.171538 
C 206.429718 181.171538 205.978847 181.358294 205.646464 181.690677 
C 205.314081 182.02306 205.127325 182.473931 205.127325 182.943991 
C 205.127325 183.414052 205.314081 183.864923 205.646464 184.197306 
C 205.978847 184.529688 206.429718 184.716445 206.899778 184.716445 
z
" clip-path="url(#pa2daff6746)" style="stroke: #000000; stroke-width: 0.886227"/>
    <path d="M 213.663415 210.397722 
C 214.133475 210.397722 214.584346 210.210965 214.916729 209.878583 
C 215.249112 209.5462 215.435869 209.095329 215.435869 208.625268 
C 215.435869 208.155208 215.249112 207.704337 214.916729 207.371954 
C 214.584346 207.039571 214.133475 206.852815 213.663415 206.852815 
C 213.193355 206.852815 212.742483 207.039571 212.410101 207.371954 
C 212.077718 207.704337 211.890961 208.155208 211.890961 208.625268 
C 211.890961 209.095329 212.077718 209.5462 212.410101 209.878583 
C 212.742483 210.210965 213.193355 210.397722 213.663415 210.397722 
z
" clip-path="url(#pa2daff6746)" style="stroke: #000000; stroke-width: 0.886227"/>
    <path d="M 220.427051 211.176968 
C 220.897111 211.176968 221.347982 210.990211 221.680365 210.657828 
C 222.012748 210.325446 222.199505 209.874575 222.199505 209.404514 
C 222.199505 208.934454 222.012748 208.483583 221.680365 208.1512 
C 221.347982 207.818817 220.897111 207.63206 220.427051 207.63206 
C 219.956991 207.63206 219.50612 207.818817 219.173737 208.1512 
C 218.841354 208.483583 218.654597 208.934454 218.654597 209.404514 
C 218.654597 209.874575 218.841354 210.325446 219.173737 210.657828 
C 219.50612 210.990211 219.956991 211.176968 220.427051 211.176968 
z
" clip-path="url(#pa2daff6746)" style="stroke: #000000; stroke-width: 0.886227"/>
    <path d="M 227.190688 236.851972 
C 227.660748 236.851972 228.111619 236.665215 228.444002 236.332832 
C 228.776384 236.000449 228.963141 235.549578 228.963141 235.079518 
C 228.963141 234.609457 228.776384 234.158586 228.444002 233.826204 
C 228.111619 233.493821 227.660748 233.307064 227.190688 233.307064 
C 226.720627 233.307064 226.269756 233.493821 225.937373 233.826204 
C 225.604991 234.158586 225.418234 234.609457 225.418234 235.079518 
C 225.418234 235.549578 225.604991 236.000449 225.937373 236.332832 
C 226.269756 236.665215 226.720627 236.851972 227.190688 236.851972 
z
" clip-path="url(#pa2daff6746)" style="stroke: #000000; stroke-width: 0.886227"/>
    <path d="M 233.954324 236.789285 
C 234.424384 236.789285 234.875255 236.602528 235.207638 236.270146 
C 235.540021 235.937763 235.726778 235.486892 235.726778 235.016831 
C 235.726778 234.546771 235.540021 234.0959 235.207638 233.763517 
C 234.875255 233.431134 234.424384 233.244378 233.954324 233.244378 
C 233.484264 233.244378 233.033393 233.431134 232.70101 233.763517 
C 232.368627 234.0959 232.18187 234.546771 232.18187 235.016831 
C 232.18187 235.486892 232.368627 235.937763 232.70101 236.270146 
C 233.033393 236.602528 233.484264 236.789285 233.954324 236.789285 
z
" clip-path="url(#pa2daff6746)" style="stroke: #000000; stroke-width: 0.886227"/>
    <path d="M 240.71796 236.111671 
C 241.18802 236.111671 241.638892 235.924914 241.971274 235.592531 
C 242.303657 235.260148 242.490414 234.809277 242.490414 234.339217 
C 242.490414 233.869157 242.303657 233.418286 241.971274 233.085903 
C 241.638892 232.75352 241.18802 232.566763 240.71796 232.566763 
C 240.2479 232.566763 239.797029 232.75352 239.464646 233.085903 
C 239.132263 233.418286 238.945506 233.869157 238.945506 234.339217 
C 238.945506 234.809277 239.132263 235.260148 239.464646 235.592531 
C 239.797029 235.924914 240.2479 236.111671 240.71796 236.111671 
z
" clip-path="url(#pa2daff6746)" style="stroke: #000000; stroke-width: 0.886227"/>
    <path d="M 247.481597 236.374068 
C 247.951657 236.374068 248.402528 236.187311 248.734911 235.854929 
C 249.067294 235.522546 249.25405 235.071675 249.25405 234.601614 
C 249.25405 234.131554 249.067294 233.680683 248.734911 233.3483 
C 248.402528 233.015917 247.951657 232.829161 247.481597 232.829161 
C 247.011536 232.829161 246.560665 233.015917 246.228282 233.3483 
C 245.8959 233.680683 245.709143 234.131554 245.709143 234.601614 
C 245.709143 235.071675 245.8959 235.522546 246.228282 235.854929 
C 246.560665 236.187311 247.011536 236.374068 247.481597 236.374068 
z
" clip-path="url(#pa2daff6746)" style="stroke: #000000; stroke-width: 0.886227"/>
    <path d="M 146.027051 190.277825 
C 146.497111 190.277825 146.947982 190.091068 147.280365 189.758685 
C 147.612748 189.426302 147.799505 188.975431 147.799505 188.505371 
C 147.799505 188.03531 147.612748 187.584439 147.280365 187.252057 
C 146.947982 186.919674 146.497111 186.732917 146.027051 186.732917 
C 145.556991 186.732917 145.10612 186.919674 144.773737 187.252057 
C 144.441354 187.584439 144.254597 188.03531 144.254597 188.505371 
C 144.254597 188.975431 144.441354 189.426302 144.773737 189.758685 
C 145.10612 190.091068 145.556991 190.277825 146.027051 190.277825 
z
" clip-path="url(#pa2daff6746)" style="stroke: #000000; stroke-width: 0.886227"/>
    <path d="M 152.790688 125.163931 
C 153.260748 125.163931 153.711619 124.977175 154.044002 124.644792 
C 154.376384 124.312409 154.563141 123.861538 154.563141 123.391478 
C 154.563141 122.921417 154.376384 122.470546 154.044002 122.138163 
C 153.711619 121.805781 153.260748 121.619024 152.790688 121.619024 
C 152.320627 121.619024 151.869756 121.805781 151.537373 122.138163 
C 151.204991 122.470546 151.018234 122.921417 151.018234 123.391478 
C 151.018234 123.861538 151.204991 124.312409 151.537373 124.644792 
C 151.869756 124.977175 152.320627 125.163931 152.790688 125.163931 
z
" clip-path="url(#pa2daff6746)" style="stroke: #000000; stroke-width: 0.886227"/>
    <path d="M 159.554324 124.111671 
C 160.024384 124.111671 160.475255 123.924914 160.807638 123.592531 
C 161.140021 123.260148 161.326778 122.809277 161.326778 122.339217 
C 161.326778 121.869157 161.140021 121.418286 160.807638 121.085903 
C 160.475255 120.75352 160.024384 120.566763 159.554324 120.566763 
C 159.084264 120.566763 158.633393 120.75352 158.30101 121.085903 
C 157.968627 121.418286 157.78187 121.869157 157.78187 122.339217 
C 157.78187 122.809277 157.968627 123.260148 158.30101 123.592531 
C 158.633393 123.924914 159.084264 124.111671 159.554324 124.111671 
z
" clip-path="url(#pa2daff6746)" style="stroke: #000000; stroke-width: 0.886227"/>
    <path d="M 166.31796 55.980813 
C 166.78802 55.980813 167.238892 55.794056 167.571274 55.461673 
C 167.903657 55.129291 168.090414 54.678419 168.090414 54.208359 
C 168.090414 53.738299 167.903657 53.287428 167.571274 52.955045 
C 167.238892 52.622662 166.78802 52.435905 166.31796 52.435905 
C 165.8479 52.435905 165.397029 52.622662 165.064646 52.955045 
C 164.732263 53.287428 164.545506 53.738299 164.545506 54.208359 
C 164.545506 54.678419 164.732263 55.129291 165.064646 55.461673 
C 165.397029 55.794056 165.8479 55.980813 166.31796 55.980813 
z
" clip-path="url(#pa2daff6746)" style="stroke: #000000; stroke-width: 0.886227"/>
    <path d="M 173.081597 138.371618 
C 173.551657 138.371618 174.002528 138.184861 174.334911 137.852478 
C 174.667294 137.520095 174.85405 137.069224 174.85405 136.599164 
C 174.85405 136.129104 174.667294 135.678232 174.334911 135.34585 
C 174.002528 135.013467 173.551657 134.82671 173.081597 134.82671 
C 172.611536 134.82671 172.160665 135.013467 171.828282 135.34585 
C 171.4959 135.678232 171.309143 136.129104 171.309143 136.599164 
C 171.309143 137.069224 171.4959 137.520095 171.828282 137.852478 
C 172.160665 138.184861 172.611536 138.371618 173.081597 138.371618 
z
" clip-path="url(#pa2daff6746)" style="stroke: #000000; stroke-width: 0.886227"/>
    <path d="M 179.845233 199.080632 
C 180.315293 199.080632 180.766164 198.893875 181.098547 198.561492 
C 181.43093 198.229109 181.617687 197.778238 181.617687 197.308178 
C 181.617687 196.838117 181.43093 196.387246 181.098547 196.054864 
C 180.766164 195.722481 180.315293 195.535724 179.845233 195.535724 
C 179.375173 195.535724 178.924302 195.722481 178.591919 196.054864 
C 178.259536 196.387246 178.072779 196.838117 178.072779 197.308178 
C 178.072779 197.778238 178.259536 198.229109 178.591919 198.561492 
C 178.924302 198.893875 179.375173 199.080632 179.845233 199.080632 
z
" clip-path="url(#pa2daff6746)" style="stroke: #000000; stroke-width: 0.886227"/>
   </g>
   <g id="LineCollection_1">
    <path d="M 41.190688 178.451719 
L 264.390688 178.451719 
" clip-path="url(#pa2daff6746)" style="fill: none; stroke: #000000; stroke-width: 0.886227"/>
   </g>
  </g>
  <g id="text_10">
   <!-- AR WT spickle ratios -->
   <g transform="translate(81.777875 17.229938)scale(0.132 -0.132)">
    <defs>
     <path id="DejaVuSans-41" d="M 2188 4044 
L 1331 1722 
L 3047 1722 
L 2188 4044 
z
M 1831 4666 
L 2547 4666 
L 4325 0 
L 3669 0 
L 3244 1197 
L 1141 1197 
L 716 0 
L 50 0 
L 1831 4666 
z
" transform="scale(0.015625)"/>
     <path id="DejaVuSans-57" d="M 213 4666 
L 850 4666 
L 1831 722 
L 2809 4666 
L 3519 4666 
L 4500 722 
L 5478 4666 
L 6119 4666 
L 4947 0 
L 4153 0 
L 3169 4050 
L 2175 0 
L 1381 0 
L 213 4666 
z
" transform="scale(0.015625)"/>
     <path id="DejaVuSans-73" d="M 2834 3397 
L 2834 2853 
Q 2591 2978 2328 3040 
Q 2066 3103 1784 3103 
Q 1356 3103 1142 2972 
Q 928 2841 928 2578 
Q 928 2378 1081 2264 
Q 1234 2150 1697 2047 
L 1894 2003 
Q 2506 1872 2764 1633 
Q 3022 1394 3022 966 
Q 3022 478 2636 193 
Q 2250 -91 1575 -91 
Q 1294 -91 989 -36 
Q 684 19 347 128 
L 347 722 
Q 666 556 975 473 
Q 1284 391 1588 391 
Q 1994 391 2212 530 
Q 2431 669 2431 922 
Q 2431 1156 2273 1281 
Q 2116 1406 1581 1522 
L 1381 1569 
Q 847 1681 609 1914 
Q 372 2147 372 2553 
Q 372 3047 722 3315 
Q 1072 3584 1716 3584 
Q 2034 3584 2315 3537 
Q 2597 3491 2834 3397 
z
" transform="scale(0.015625)"/>
     <path id="DejaVuSans-72" d="M 2631 2963 
Q 2534 3019 2420 3045 
Q 2306 3072 2169 3072 
Q 1681 3072 1420 2755 
Q 1159 2438 1159 1844 
L 1159 0 
L 581 0 
L 581 3500 
L 1159 3500 
L 1159 2956 
Q 1341 3275 1631 3429 
Q 1922 3584 2338 3584 
Q 2397 3584 2469 3576 
Q 2541 3569 2628 3553 
L 2631 2963 
z
" transform="scale(0.015625)"/>
    </defs>
    <use xlink:href="#DejaVuSans-41"/>
    <use xlink:href="#DejaVuSans-52" x="68.408203"/>
    <use xlink:href="#DejaVuSans-20" x="137.890625"/>
    <use xlink:href="#DejaVuSans-57" x="169.677734"/>
    <use xlink:href="#DejaVuSans-54" x="268.554688"/>
    <use xlink:href="#DejaVuSans-20" x="329.638672"/>
    <use xlink:href="#DejaVuSans-73" x="361.425781"/>
    <use xlink:href="#DejaVuSans-70" x="413.525391"/>
    <use xlink:href="#DejaVuSans-69" x="477.001953"/>
    <use xlink:href="#DejaVuSans-63" x="504.785156"/>
    <use xlink:href="#DejaVuSans-6b" x="559.765625"/>
    <use xlink:href="#DejaVuSans-6c" x="617.675781"/>
    <use xlink:href="#DejaVuSans-65" x="645.458984"/>
    <use xlink:href="#DejaVuSans-20" x="706.982422"/>
    <use xlink:href="#DejaVuSans-72" x="738.769531"/>
    <use xlink:href="#DejaVuSans-61" x="779.882812"/>
    <use xlink:href="#DejaVuSans-74" x="841.162109"/>
    <use xlink:href="#DejaVuSans-69" x="880.371094"/>
    <use xlink:href="#DejaVuSans-6f" x="908.154297"/>
    <use xlink:href="#DejaVuSans-73" x="969.335938"/>
   </g>
  </g>
 </g>
 <defs>
  <clipPath id="pa2daff6746">
   <rect x="41.190688" y="26.105371" width="223.2" height="221.76"/>
  </clipPath>
 </defs>
</svg>
