<?xml version="1.0" encoding="utf-8" standalone="no"?>
<!DOCTYPE svg PUBLIC "-//W3C//DTD SVG 1.1//EN"
  "http://www.w3.org/Graphics/SVG/1.1/DTD/svg11.dtd">
<svg xmlns:xlink="http://www.w3.org/1999/xlink" width="271.590688pt" height="283.578058pt" viewBox="0 0 271.590688 283.578058" xmlns="http://www.w3.org/2000/svg" version="1.1">
 <metadata>
  <rdf:RDF xmlns:dc="http://purl.org/dc/elements/1.1/" xmlns:cc="http://creativecommons.org/ns#" xmlns:rdf="http://www.w3.org/1999/02/22-rdf-syntax-ns#">
   <cc:Work>
    <dc:type rdf:resource="http://purl.org/dc/dcmitype/StillImage"/>
    <dc:date>2022-07-13T10:17:42.659756</dc:date>
    <dc:format>image/svg+xml</dc:format>
    <dc:creator>
     <cc:Agent>
      <dc:title>Matplotlib v3.5.1, https://matplotlib.org/</dc:title>
     </cc:Agent>
    </dc:creator>
   </cc:Work>
  </rdf:RDF>
 </metadata>
 <defs>
  <style type="text/css">*{stroke-linejoin: round; stroke-linecap: butt}</style>
 </defs>
 <g id="figure_1">
  <g id="patch_1">
   <path d="M 0 283.578058 
L 271.590688 283.578058 
L 271.590688 0 
L 0 0 
z
" style="fill: #ffffff; stroke: #ffffff; stroke-linejoin: miter"/>
  </g>
  <g id="axes_1">
   <g id="patch_2">
    <path d="M 41.190688 247.865371 
L 264.390688 247.865371 
L 264.390688 26.105371 
L 41.190688 26.105371 
z
" style="fill: #ebebeb"/>
   </g>
   <g id="matplotlib.axis_1">
    <g id="xtick_1">
     <g id="line2d_1">
      <path d="M 85.154324 247.865371 
L 85.154324 26.105371 
" clip-path="url(#p6c20470cf1)" style="fill: none; stroke: #ffffff"/>
     </g>
     <g id="line2d_2">
      <path d="M 85.154324 247.865371 
" style="fill: none; stroke: #333333; stroke-width: 1.5"/>
      <defs>
       <path id="ma7baca1d1e" d="M 0 0 
L 0 2.75 
" style="stroke: #000000"/>
      </defs>
      <g>
       <use xlink:href="#ma7baca1d1e" x="85.154324" y="247.865371" style="fill: #333333; stroke: #000000"/>
      </g>
     </g>
     <g id="text_1">
      <!-- 40 -->
      <g style="fill: #4d4d4d" transform="translate(79.555324 259.501996)scale(0.088 -0.088)">
       <defs>
        <path id="DejaVuSans-34" d="M 2419 4116 
L 825 1625 
L 2419 1625 
L 2419 4116 
z
M 2253 4666 
L 3047 4666 
L 3047 1625 
L 3713 1625 
L 3713 1100 
L 3047 1100 
L 3047 0 
L 2419 0 
L 2419 1100 
L 313 1100 
L 313 1709 
L 2253 4666 
z
" transform="scale(0.015625)"/>
        <path id="DejaVuSans-30" d="M 2034 4250 
Q 1547 4250 1301 3770 
Q 1056 3291 1056 2328 
Q 1056 1369 1301 889 
Q 1547 409 2034 409 
Q 2525 409 2770 889 
Q 3016 1369 3016 2328 
Q 3016 3291 2770 3770 
Q 2525 4250 2034 4250 
z
M 2034 4750 
Q 2819 4750 3233 4129 
Q 3647 3509 3647 2328 
Q 3647 1150 3233 529 
Q 2819 -91 2034 -91 
Q 1250 -91 836 529 
Q 422 1150 422 2328 
Q 422 3509 836 4129 
Q 1250 4750 2034 4750 
z
" transform="scale(0.015625)"/>
       </defs>
       <use xlink:href="#DejaVuSans-34"/>
       <use xlink:href="#DejaVuSans-30" x="63.623047"/>
      </g>
     </g>
    </g>
    <g id="xtick_2">
     <g id="line2d_3">
      <path d="M 152.790688 247.865371 
L 152.790688 26.105371 
" clip-path="url(#p6c20470cf1)" style="fill: none; stroke: #ffffff"/>
     </g>
     <g id="line2d_4">
      <path d="M 152.790688 247.865371 
" style="fill: none; stroke: #333333; stroke-width: 1.5"/>
      <g>
       <use xlink:href="#ma7baca1d1e" x="152.790688" y="247.865371" style="fill: #333333; stroke: #000000"/>
      </g>
     </g>
     <g id="text_2">
      <!-- 50 -->
      <g style="fill: #4d4d4d" transform="translate(147.191688 259.501996)scale(0.088 -0.088)">
       <defs>
        <path id="DejaVuSans-35" d="M 691 4666 
L 3169 4666 
L 3169 4134 
L 1269 4134 
L 1269 2991 
Q 1406 3038 1543 3061 
Q 1681 3084 1819 3084 
Q 2600 3084 3056 2656 
Q 3513 2228 3513 1497 
Q 3513 744 3044 326 
Q 2575 -91 1722 -91 
Q 1428 -91 1123 -41 
Q 819 9 494 109 
L 494 744 
Q 775 591 1075 516 
Q 1375 441 1709 441 
Q 2250 441 2565 725 
Q 2881 1009 2881 1497 
Q 2881 1984 2565 2268 
Q 2250 2553 1709 2553 
Q 1456 2553 1204 2497 
Q 953 2441 691 2322 
L 691 4666 
z
" transform="scale(0.015625)"/>
       </defs>
       <use xlink:href="#DejaVuSans-35"/>
       <use xlink:href="#DejaVuSans-30" x="63.623047"/>
      </g>
     </g>
    </g>
    <g id="xtick_3">
     <g id="line2d_5">
      <path d="M 220.427051 247.865371 
L 220.427051 26.105371 
" clip-path="url(#p6c20470cf1)" style="fill: none; stroke: #ffffff"/>
     </g>
     <g id="line2d_6">
      <path d="M 220.427051 247.865371 
" style="fill: none; stroke: #333333; stroke-width: 1.5"/>
      <g>
       <use xlink:href="#ma7baca1d1e" x="220.427051" y="247.865371" style="fill: #333333; stroke: #000000"/>
      </g>
     </g>
     <g id="text_3">
      <!-- 60 -->
      <g style="fill: #4d4d4d" transform="translate(214.828051 259.501996)scale(0.088 -0.088)">
       <defs>
        <path id="DejaVuSans-36" d="M 2113 2584 
Q 1688 2584 1439 2293 
Q 1191 2003 1191 1497 
Q 1191 994 1439 701 
Q 1688 409 2113 409 
Q 2538 409 2786 701 
Q 3034 994 3034 1497 
Q 3034 2003 2786 2293 
Q 2538 2584 2113 2584 
z
M 3366 4563 
L 3366 3988 
Q 3128 4100 2886 4159 
Q 2644 4219 2406 4219 
Q 1781 4219 1451 3797 
Q 1122 3375 1075 2522 
Q 1259 2794 1537 2939 
Q 1816 3084 2150 3084 
Q 2853 3084 3261 2657 
Q 3669 2231 3669 1497 
Q 3669 778 3244 343 
Q 2819 -91 2113 -91 
Q 1303 -91 875 529 
Q 447 1150 447 2328 
Q 447 3434 972 4092 
Q 1497 4750 2381 4750 
Q 2619 4750 2861 4703 
Q 3103 4656 3366 4563 
z
" transform="scale(0.015625)"/>
       </defs>
       <use xlink:href="#DejaVuSans-36"/>
       <use xlink:href="#DejaVuSans-30" x="63.623047"/>
      </g>
     </g>
    </g>
    <g id="xtick_4">
     <g id="line2d_7">
      <path d="M 51.336142 247.865371 
L 51.336142 26.105371 
" clip-path="url(#p6c20470cf1)" style="fill: none; stroke: #ffffff; stroke-width: 0.5"/>
     </g>
    </g>
    <g id="xtick_5">
     <g id="line2d_8">
      <path d="M 118.972506 247.865371 
L 118.972506 26.105371 
" clip-path="url(#p6c20470cf1)" style="fill: none; stroke: #ffffff; stroke-width: 0.5"/>
     </g>
    </g>
    <g id="xtick_6">
     <g id="line2d_9">
      <path d="M 186.608869 247.865371 
L 186.608869 26.105371 
" clip-path="url(#p6c20470cf1)" style="fill: none; stroke: #ffffff; stroke-width: 0.5"/>
     </g>
    </g>
    <g id="xtick_7">
     <g id="line2d_10">
      <path d="M 254.245233 247.865371 
L 254.245233 26.105371 
" clip-path="url(#p6c20470cf1)" style="fill: none; stroke: #ffffff; stroke-width: 0.5"/>
     </g>
    </g>
    <g id="text_4">
     <!-- Timepoint -->
     <g transform="translate(121.707016 274.090402)scale(0.11 -0.11)">
      <defs>
       <path id="DejaVuSans-54" d="M -19 4666 
L 3928 4666 
L 3928 4134 
L 2272 4134 
L 2272 0 
L 1638 0 
L 1638 4134 
L -19 4134 
L -19 4666 
z
" transform="scale(0.015625)"/>
       <path id="DejaVuSans-69" d="M 603 3500 
L 1178 3500 
L 1178 0 
L 603 0 
L 603 3500 
z
M 603 4863 
L 1178 4863 
L 1178 4134 
L 603 4134 
L 603 4863 
z
" transform="scale(0.015625)"/>
       <path id="DejaVuSans-6d" d="M 3328 2828 
Q 3544 3216 3844 3400 
Q 4144 3584 4550 3584 
Q 5097 3584 5394 3201 
Q 5691 2819 5691 2113 
L 5691 0 
L 5113 0 
L 5113 2094 
Q 5113 2597 4934 2840 
Q 4756 3084 4391 3084 
Q 3944 3084 3684 2787 
Q 3425 2491 3425 1978 
L 3425 0 
L 2847 0 
L 2847 2094 
Q 2847 2600 2669 2842 
Q 2491 3084 2119 3084 
Q 1678 3084 1418 2786 
Q 1159 2488 1159 1978 
L 1159 0 
L 581 0 
L 581 3500 
L 1159 3500 
L 1159 2956 
Q 1356 3278 1631 3431 
Q 1906 3584 2284 3584 
Q 2666 3584 2933 3390 
Q 3200 3197 3328 2828 
z
" transform="scale(0.015625)"/>
       <path id="DejaVuSans-65" d="M 3597 1894 
L 3597 1613 
L 953 1613 
Q 991 1019 1311 708 
Q 1631 397 2203 397 
Q 2534 397 2845 478 
Q 3156 559 3463 722 
L 3463 178 
Q 3153 47 2828 -22 
Q 2503 -91 2169 -91 
Q 1331 -91 842 396 
Q 353 884 353 1716 
Q 353 2575 817 3079 
Q 1281 3584 2069 3584 
Q 2775 3584 3186 3129 
Q 3597 2675 3597 1894 
z
M 3022 2063 
Q 3016 2534 2758 2815 
Q 2500 3097 2075 3097 
Q 1594 3097 1305 2825 
Q 1016 2553 972 2059 
L 3022 2063 
z
" transform="scale(0.015625)"/>
       <path id="DejaVuSans-70" d="M 1159 525 
L 1159 -1331 
L 581 -1331 
L 581 3500 
L 1159 3500 
L 1159 2969 
Q 1341 3281 1617 3432 
Q 1894 3584 2278 3584 
Q 2916 3584 3314 3078 
Q 3713 2572 3713 1747 
Q 3713 922 3314 415 
Q 2916 -91 2278 -91 
Q 1894 -91 1617 61 
Q 1341 213 1159 525 
z
M 3116 1747 
Q 3116 2381 2855 2742 
Q 2594 3103 2138 3103 
Q 1681 3103 1420 2742 
Q 1159 2381 1159 1747 
Q 1159 1113 1420 752 
Q 1681 391 2138 391 
Q 2594 391 2855 752 
Q 3116 1113 3116 1747 
z
" transform="scale(0.015625)"/>
       <path id="DejaVuSans-6f" d="M 1959 3097 
Q 1497 3097 1228 2736 
Q 959 2375 959 1747 
Q 959 1119 1226 758 
Q 1494 397 1959 397 
Q 2419 397 2687 759 
Q 2956 1122 2956 1747 
Q 2956 2369 2687 2733 
Q 2419 3097 1959 3097 
z
M 1959 3584 
Q 2709 3584 3137 3096 
Q 3566 2609 3566 1747 
Q 3566 888 3137 398 
Q 2709 -91 1959 -91 
Q 1206 -91 779 398 
Q 353 888 353 1747 
Q 353 2609 779 3096 
Q 1206 3584 1959 3584 
z
" transform="scale(0.015625)"/>
       <path id="DejaVuSans-6e" d="M 3513 2113 
L 3513 0 
L 2938 0 
L 2938 2094 
Q 2938 2591 2744 2837 
Q 2550 3084 2163 3084 
Q 1697 3084 1428 2787 
Q 1159 2491 1159 1978 
L 1159 0 
L 581 0 
L 581 3500 
L 1159 3500 
L 1159 2956 
Q 1366 3272 1645 3428 
Q 1925 3584 2291 3584 
Q 2894 3584 3203 3211 
Q 3513 2838 3513 2113 
z
" transform="scale(0.015625)"/>
       <path id="DejaVuSans-74" d="M 1172 4494 
L 1172 3500 
L 2356 3500 
L 2356 3053 
L 1172 3053 
L 1172 1153 
Q 1172 725 1289 603 
Q 1406 481 1766 481 
L 2356 481 
L 2356 0 
L 1766 0 
Q 1100 0 847 248 
Q 594 497 594 1153 
L 594 3053 
L 172 3053 
L 172 3500 
L 594 3500 
L 594 4494 
L 1172 4494 
z
" transform="scale(0.015625)"/>
      </defs>
      <use xlink:href="#DejaVuSans-54"/>
      <use xlink:href="#DejaVuSans-69" x="57.958984"/>
      <use xlink:href="#DejaVuSans-6d" x="85.742188"/>
      <use xlink:href="#DejaVuSans-65" x="183.154297"/>
      <use xlink:href="#DejaVuSans-70" x="244.677734"/>
      <use xlink:href="#DejaVuSans-6f" x="308.154297"/>
      <use xlink:href="#DejaVuSans-69" x="369.335938"/>
      <use xlink:href="#DejaVuSans-6e" x="397.119141"/>
      <use xlink:href="#DejaVuSans-74" x="460.498047"/>
     </g>
    </g>
   </g>
   <g id="matplotlib.axis_2">
    <g id="ytick_1">
     <g id="line2d_11">
      <path d="M 41.190688 203.350583 
L 264.390688 203.350583 
" clip-path="url(#p6c20470cf1)" style="fill: none; stroke: #ffffff"/>
     </g>
     <g id="line2d_12">
      <path d="M 41.190688 203.350583 
" style="fill: none; stroke: #333333; stroke-width: 1.5"/>
      <defs>
       <path id="ma2d087408c" d="M 0 0 
L -2.75 0 
" style="stroke: #000000"/>
      </defs>
      <g>
       <use xlink:href="#ma2d087408c" x="41.190688" y="203.350583" style="fill: #333333; stroke: #000000"/>
      </g>
     </g>
     <g id="text_5">
      <!-- 2.5 -->
      <g style="fill: #4d4d4d" transform="translate(22.245937 205.778833)scale(0.088 -0.088)">
       <defs>
        <path id="DejaVuSans-32" d="M 1228 531 
L 3431 531 
L 3431 0 
L 469 0 
L 469 531 
Q 828 903 1448 1529 
Q 2069 2156 2228 2338 
Q 2531 2678 2651 2914 
Q 2772 3150 2772 3378 
Q 2772 3750 2511 3984 
Q 2250 4219 1831 4219 
Q 1534 4219 1204 4116 
Q 875 4013 500 3803 
L 500 4441 
Q 881 4594 1212 4672 
Q 1544 4750 1819 4750 
Q 2544 4750 2975 4387 
Q 3406 4025 3406 3419 
Q 3406 3131 3298 2873 
Q 3191 2616 2906 2266 
Q 2828 2175 2409 1742 
Q 1991 1309 1228 531 
z
" transform="scale(0.015625)"/>
        <path id="DejaVuSans-2e" d="M 684 794 
L 1344 794 
L 1344 0 
L 684 0 
L 684 794 
z
" transform="scale(0.015625)"/>
       </defs>
       <use xlink:href="#DejaVuSans-32"/>
       <use xlink:href="#DejaVuSans-2e" x="63.623047"/>
       <use xlink:href="#DejaVuSans-35" x="95.410156"/>
      </g>
     </g>
    </g>
    <g id="ytick_2">
     <g id="line2d_13">
      <path d="M 41.190688 140.932671 
L 264.390688 140.932671 
" clip-path="url(#p6c20470cf1)" style="fill: none; stroke: #ffffff"/>
     </g>
     <g id="line2d_14">
      <path d="M 41.190688 140.932671 
" style="fill: none; stroke: #333333; stroke-width: 1.5"/>
      <g>
       <use xlink:href="#ma2d087408c" x="41.190688" y="140.932671" style="fill: #333333; stroke: #000000"/>
      </g>
     </g>
     <g id="text_6">
      <!-- 5 -->
      <g style="fill: #4d4d4d" transform="translate(30.641687 143.360921)scale(0.088 -0.088)">
       <use xlink:href="#DejaVuSans-35"/>
      </g>
     </g>
    </g>
    <g id="ytick_3">
     <g id="line2d_15">
      <path d="M 41.190688 78.514759 
L 264.390688 78.514759 
" clip-path="url(#p6c20470cf1)" style="fill: none; stroke: #ffffff"/>
     </g>
     <g id="line2d_16">
      <path d="M 41.190688 78.514759 
" style="fill: none; stroke: #333333; stroke-width: 1.5"/>
      <g>
       <use xlink:href="#ma2d087408c" x="41.190688" y="78.514759" style="fill: #333333; stroke: #000000"/>
      </g>
     </g>
     <g id="text_7">
      <!-- 7.5 -->
      <g style="fill: #4d4d4d" transform="translate(22.245937 80.943009)scale(0.088 -0.088)">
       <defs>
        <path id="DejaVuSans-37" d="M 525 4666 
L 3525 4666 
L 3525 4397 
L 1831 0 
L 1172 0 
L 2766 4134 
L 525 4134 
L 525 4666 
z
" transform="scale(0.015625)"/>
       </defs>
       <use xlink:href="#DejaVuSans-37"/>
       <use xlink:href="#DejaVuSans-2e" x="63.623047"/>
       <use xlink:href="#DejaVuSans-35" x="95.410156"/>
      </g>
     </g>
    </g>
    <g id="ytick_4">
     <g id="line2d_17">
      <path d="M 41.190688 234.559538 
L 264.390688 234.559538 
" clip-path="url(#p6c20470cf1)" style="fill: none; stroke: #ffffff; stroke-width: 0.5"/>
     </g>
    </g>
    <g id="ytick_5">
     <g id="line2d_18">
      <path d="M 41.190688 172.141627 
L 264.390688 172.141627 
" clip-path="url(#p6c20470cf1)" style="fill: none; stroke: #ffffff; stroke-width: 0.5"/>
     </g>
    </g>
    <g id="ytick_6">
     <g id="line2d_19">
      <path d="M 41.190688 109.723715 
L 264.390688 109.723715 
" clip-path="url(#p6c20470cf1)" style="fill: none; stroke: #ffffff; stroke-width: 0.5"/>
     </g>
    </g>
    <g id="ytick_7">
     <g id="line2d_20">
      <path d="M 41.190688 47.305803 
L 264.390688 47.305803 
" clip-path="url(#p6c20470cf1)" style="fill: none; stroke: #ffffff; stroke-width: 0.5"/>
     </g>
    </g>
    <g id="text_8">
     <!-- Spickle Ratio -->
     <g transform="translate(15.558281 171.043574)rotate(-90)scale(0.11 -0.11)">
      <defs>
       <path id="DejaVuSans-53" d="M 3425 4513 
L 3425 3897 
Q 3066 4069 2747 4153 
Q 2428 4238 2131 4238 
Q 1616 4238 1336 4038 
Q 1056 3838 1056 3469 
Q 1056 3159 1242 3001 
Q 1428 2844 1947 2747 
L 2328 2669 
Q 3034 2534 3370 2195 
Q 3706 1856 3706 1288 
Q 3706 609 3251 259 
Q 2797 -91 1919 -91 
Q 1588 -91 1214 -16 
Q 841 59 441 206 
L 441 856 
Q 825 641 1194 531 
Q 1563 422 1919 422 
Q 2459 422 2753 634 
Q 3047 847 3047 1241 
Q 3047 1584 2836 1778 
Q 2625 1972 2144 2069 
L 1759 2144 
Q 1053 2284 737 2584 
Q 422 2884 422 3419 
Q 422 4038 858 4394 
Q 1294 4750 2059 4750 
Q 2388 4750 2728 4690 
Q 3069 4631 3425 4513 
z
" transform="scale(0.015625)"/>
       <path id="DejaVuSans-63" d="M 3122 3366 
L 3122 2828 
Q 2878 2963 2633 3030 
Q 2388 3097 2138 3097 
Q 1578 3097 1268 2742 
Q 959 2388 959 1747 
Q 959 1106 1268 751 
Q 1578 397 2138 397 
Q 2388 397 2633 464 
Q 2878 531 3122 666 
L 3122 134 
Q 2881 22 2623 -34 
Q 2366 -91 2075 -91 
Q 1284 -91 818 406 
Q 353 903 353 1747 
Q 353 2603 823 3093 
Q 1294 3584 2113 3584 
Q 2378 3584 2631 3529 
Q 2884 3475 3122 3366 
z
" transform="scale(0.015625)"/>
       <path id="DejaVuSans-6b" d="M 581 4863 
L 1159 4863 
L 1159 1991 
L 2875 3500 
L 3609 3500 
L 1753 1863 
L 3688 0 
L 2938 0 
L 1159 1709 
L 1159 0 
L 581 0 
L 581 4863 
z
" transform="scale(0.015625)"/>
       <path id="DejaVuSans-6c" d="M 603 4863 
L 1178 4863 
L 1178 0 
L 603 0 
L 603 4863 
z
" transform="scale(0.015625)"/>
       <path id="DejaVuSans-20" transform="scale(0.015625)"/>
       <path id="DejaVuSans-52" d="M 2841 2188 
Q 3044 2119 3236 1894 
Q 3428 1669 3622 1275 
L 4263 0 
L 3584 0 
L 2988 1197 
Q 2756 1666 2539 1819 
Q 2322 1972 1947 1972 
L 1259 1972 
L 1259 0 
L 628 0 
L 628 4666 
L 2053 4666 
Q 2853 4666 3247 4331 
Q 3641 3997 3641 3322 
Q 3641 2881 3436 2590 
Q 3231 2300 2841 2188 
z
M 1259 4147 
L 1259 2491 
L 2053 2491 
Q 2509 2491 2742 2702 
Q 2975 2913 2975 3322 
Q 2975 3731 2742 3939 
Q 2509 4147 2053 4147 
L 1259 4147 
z
" transform="scale(0.015625)"/>
       <path id="DejaVuSans-61" d="M 2194 1759 
Q 1497 1759 1228 1600 
Q 959 1441 959 1056 
Q 959 750 1161 570 
Q 1363 391 1709 391 
Q 2188 391 2477 730 
Q 2766 1069 2766 1631 
L 2766 1759 
L 2194 1759 
z
M 3341 1997 
L 3341 0 
L 2766 0 
L 2766 531 
Q 2569 213 2275 61 
Q 1981 -91 1556 -91 
Q 1019 -91 701 211 
Q 384 513 384 1019 
Q 384 1609 779 1909 
Q 1175 2209 1959 2209 
L 2766 2209 
L 2766 2266 
Q 2766 2663 2505 2880 
Q 2244 3097 1772 3097 
Q 1472 3097 1187 3025 
Q 903 2953 641 2809 
L 641 3341 
Q 956 3463 1253 3523 
Q 1550 3584 1831 3584 
Q 2591 3584 2966 3190 
Q 3341 2797 3341 1997 
z
" transform="scale(0.015625)"/>
      </defs>
      <use xlink:href="#DejaVuSans-53"/>
      <use xlink:href="#DejaVuSans-70" x="63.476562"/>
      <use xlink:href="#DejaVuSans-69" x="126.953125"/>
      <use xlink:href="#DejaVuSans-63" x="154.736328"/>
      <use xlink:href="#DejaVuSans-6b" x="209.716797"/>
      <use xlink:href="#DejaVuSans-6c" x="267.626953"/>
      <use xlink:href="#DejaVuSans-65" x="295.410156"/>
      <use xlink:href="#DejaVuSans-20" x="356.933594"/>
      <use xlink:href="#DejaVuSans-52" x="388.720703"/>
      <use xlink:href="#DejaVuSans-61" x="455.953125"/>
      <use xlink:href="#DejaVuSans-74" x="517.232422"/>
      <use xlink:href="#DejaVuSans-69" x="556.441406"/>
      <use xlink:href="#DejaVuSans-6f" x="584.224609"/>
     </g>
    </g>
   </g>
   <g id="PathCollection_1">
    <path d="M 71.627051 227.053654 
C 72.097111 227.053654 72.547982 226.866897 72.880365 226.534514 
C 73.212748 226.202132 73.399505 225.75126 73.399505 225.2812 
C 73.399505 224.81114 73.212748 224.360269 72.880365 224.027886 
C 72.547982 223.695503 72.097111 223.508746 71.627051 223.508746 
C 71.156991 223.508746 70.70612 223.695503 70.373737 224.027886 
C 70.041354 224.360269 69.854597 224.81114 69.854597 225.2812 
C 69.854597 225.75126 70.041354 226.202132 70.373737 226.534514 
C 70.70612 226.866897 71.156991 227.053654 71.627051 227.053654 
z
" clip-path="url(#p6c20470cf1)" style="stroke: #000000; stroke-width: 0.886227"/>
    <path d="M 78.390688 190.056644 
C 78.860748 190.056644 79.311619 189.869887 79.644002 189.537504 
C 79.976384 189.205121 80.163141 188.75425 80.163141 188.28419 
C 80.163141 187.81413 79.976384 187.363259 79.644002 187.030876 
C 79.311619 186.698493 78.860748 186.511736 78.390688 186.511736 
C 77.920627 186.511736 77.469756 186.698493 77.137373 187.030876 
C 76.804991 187.363259 76.618234 187.81413 76.618234 188.28419 
C 76.618234 188.75425 76.804991 189.205121 77.137373 189.537504 
C 77.469756 189.869887 77.920627 190.056644 78.390688 190.056644 
z
" clip-path="url(#p6c20470cf1)" style="stroke: #000000; stroke-width: 0.886227"/>
    <path d="M 85.154324 192.01003 
C 85.624384 192.01003 86.075255 191.823273 86.407638 191.49089 
C 86.740021 191.158507 86.926778 190.707636 86.926778 190.237576 
C 86.926778 189.767516 86.740021 189.316645 86.407638 188.984262 
C 86.075255 188.651879 85.624384 188.465122 85.154324 188.465122 
C 84.684264 188.465122 84.233393 188.651879 83.90101 188.984262 
C 83.568627 189.316645 83.38187 189.767516 83.38187 190.237576 
C 83.38187 190.707636 83.568627 191.158507 83.90101 191.49089 
C 84.233393 191.823273 84.684264 192.01003 85.154324 192.01003 
z
" clip-path="url(#p6c20470cf1)" style="stroke: #000000; stroke-width: 0.886227"/>
    <path d="M 91.91796 194.227903 
C 92.38802 194.227903 92.838892 194.041146 93.171274 193.708764 
C 93.503657 193.376381 93.690414 192.92551 93.690414 192.45545 
C 93.690414 191.985389 93.503657 191.534518 93.171274 191.202135 
C 92.838892 190.869753 92.38802 190.682996 91.91796 190.682996 
C 91.4479 190.682996 90.997029 190.869753 90.664646 191.202135 
C 90.332263 191.534518 90.145506 191.985389 90.145506 192.45545 
C 90.145506 192.92551 90.332263 193.376381 90.664646 193.708764 
C 90.997029 194.041146 91.4479 194.227903 91.91796 194.227903 
z
" clip-path="url(#p6c20470cf1)" style="stroke: #000000; stroke-width: 0.886227"/>
    <path d="M 98.681597 127.319742 
C 99.151657 127.319742 99.602528 127.132985 99.934911 126.800603 
C 100.267294 126.46822 100.45405 126.017349 100.45405 125.547289 
C 100.45405 125.077228 100.267294 124.626357 99.934911 124.293974 
C 99.602528 123.961592 99.151657 123.774835 98.681597 123.774835 
C 98.211536 123.774835 97.760665 123.961592 97.428282 124.293974 
C 97.0959 124.626357 96.909143 125.077228 96.909143 125.547289 
C 96.909143 126.017349 97.0959 126.46822 97.428282 126.800603 
C 97.760665 127.132985 98.211536 127.319742 98.681597 127.319742 
z
" clip-path="url(#p6c20470cf1)" style="stroke: #000000; stroke-width: 0.886227"/>
    <path d="M 105.445233 128.405046 
C 105.915293 128.405046 106.366164 128.218289 106.698547 127.885906 
C 107.03093 127.553523 107.217687 127.102652 107.217687 126.632592 
C 107.217687 126.162532 107.03093 125.711661 106.698547 125.379278 
C 106.366164 125.046895 105.915293 124.860138 105.445233 124.860138 
C 104.975173 124.860138 104.524302 125.046895 104.191919 125.379278 
C 103.859536 125.711661 103.672779 126.162532 103.672779 126.632592 
C 103.672779 127.102652 103.859536 127.553523 104.191919 127.885906 
C 104.524302 128.218289 104.975173 128.405046 105.445233 128.405046 
z
" clip-path="url(#p6c20470cf1)" style="stroke: #000000; stroke-width: 0.886227"/>
    <path d="M 112.208869 166.625762 
C 112.67893 166.625762 113.129801 166.439005 113.462183 166.106622 
C 113.794566 165.774239 113.981323 165.323368 113.981323 164.853308 
C 113.981323 164.383247 113.794566 163.932376 113.462183 163.599994 
C 113.129801 163.267611 112.67893 163.080854 112.208869 163.080854 
C 111.738809 163.080854 111.287938 163.267611 110.955555 163.599994 
C 110.623172 163.932376 110.436415 164.383247 110.436415 164.853308 
C 110.436415 165.323368 110.623172 165.774239 110.955555 166.106622 
C 111.287938 166.439005 111.738809 166.625762 112.208869 166.625762 
z
" clip-path="url(#p6c20470cf1)" style="stroke: #000000; stroke-width: 0.886227"/>
    <path d="M 118.972506 204.861874 
C 119.442566 204.861874 119.893437 204.675117 120.22582 204.342734 
C 120.558203 204.010351 120.74496 203.55948 120.74496 203.08942 
C 120.74496 202.619359 120.558203 202.168488 120.22582 201.836106 
C 119.893437 201.503723 119.442566 201.316966 118.972506 201.316966 
C 118.502445 201.316966 118.051574 201.503723 117.719192 201.836106 
C 117.386809 202.168488 117.200052 202.619359 117.200052 203.08942 
C 117.200052 203.55948 117.386809 204.010351 117.719192 204.342734 
C 118.051574 204.675117 118.502445 204.861874 118.972506 204.861874 
z
" clip-path="url(#p6c20470cf1)" style="stroke: #000000; stroke-width: 0.886227"/>
    <path d="M 125.736142 236.375278 
C 126.206202 236.375278 126.657073 236.188521 126.989456 235.856138 
C 127.321839 235.523755 127.508596 235.072884 127.508596 234.602824 
C 127.508596 234.132764 127.321839 233.681893 126.989456 233.34951 
C 126.657073 233.017127 126.206202 232.83037 125.736142 232.83037 
C 125.266082 232.83037 124.815211 233.017127 124.482828 233.34951 
C 124.150445 233.681893 123.963688 234.132764 123.963688 234.602824 
C 123.963688 235.072884 124.150445 235.523755 124.482828 235.856138 
C 124.815211 236.188521 125.266082 236.375278 125.736142 236.375278 
z
" clip-path="url(#p6c20470cf1)" style="stroke: #000000; stroke-width: 0.886227"/>
    <path d="M 132.499778 149.275431 
C 132.969839 149.275431 133.42071 149.088674 133.753093 148.756291 
C 134.085475 148.423909 134.272232 147.973038 134.272232 147.502977 
C 134.272232 147.032917 134.085475 146.582046 133.753093 146.249663 
C 133.42071 145.91728 132.969839 145.730523 132.499778 145.730523 
C 132.029718 145.730523 131.578847 145.91728 131.246464 146.249663 
C 130.914081 146.582046 130.727325 147.032917 130.727325 147.502977 
C 130.727325 147.973038 130.914081 148.423909 131.246464 148.756291 
C 131.578847 149.088674 132.029718 149.275431 132.499778 149.275431 
z
" clip-path="url(#p6c20470cf1)" style="stroke: #000000; stroke-width: 0.886227"/>
    <path d="M 139.263415 159.379946 
C 139.733475 159.379946 140.184346 159.193189 140.516729 158.860806 
C 140.849112 158.528423 141.035869 158.077552 141.035869 157.607492 
C 141.035869 157.137432 140.849112 156.686561 140.516729 156.354178 
C 140.184346 156.021795 139.733475 155.835038 139.263415 155.835038 
C 138.793355 155.835038 138.342483 156.021795 138.010101 156.354178 
C 137.677718 156.686561 137.490961 157.137432 137.490961 157.607492 
C 137.490961 158.077552 137.677718 158.528423 138.010101 158.860806 
C 138.342483 159.193189 138.793355 159.379946 139.263415 159.379946 
z
" clip-path="url(#p6c20470cf1)" style="stroke: #000000; stroke-width: 0.886227"/>
    <path d="M 146.027051 160.155294 
C 146.497111 160.155294 146.947982 159.968537 147.280365 159.636154 
C 147.612748 159.303771 147.799505 158.8529 147.799505 158.38284 
C 147.799505 157.912779 147.612748 157.461908 147.280365 157.129526 
C 146.947982 156.797143 146.497111 156.610386 146.027051 156.610386 
C 145.556991 156.610386 145.10612 156.797143 144.773737 157.129526 
C 144.441354 157.461908 144.254597 157.912779 144.254597 158.38284 
C 144.254597 158.8529 144.441354 159.303771 144.773737 159.636154 
C 145.10612 159.968537 145.556991 160.155294 146.027051 160.155294 
z
" clip-path="url(#p6c20470cf1)" style="stroke: #000000; stroke-width: 0.886227"/>
    <path d="M 152.790688 134.736881 
C 153.260748 134.736881 153.711619 134.550124 154.044002 134.217741 
C 154.376384 133.885358 154.563141 133.434487 154.563141 132.964427 
C 154.563141 132.494367 154.376384 132.043495 154.044002 131.711113 
C 153.711619 131.37873 153.260748 131.191973 152.790688 131.191973 
C 152.320627 131.191973 151.869756 131.37873 151.537373 131.711113 
C 151.204991 132.043495 151.018234 132.494367 151.018234 132.964427 
C 151.018234 133.434487 151.204991 133.885358 151.537373 134.217741 
C 151.869756 134.550124 152.320627 134.736881 152.790688 134.736881 
z
" clip-path="url(#p6c20470cf1)" style="stroke: #000000; stroke-width: 0.886227"/>
    <path d="M 159.554324 75.720049 
C 160.024384 75.720049 160.475255 75.533292 160.807638 75.200909 
C 161.140021 74.868526 161.326778 74.417655 161.326778 73.947595 
C 161.326778 73.477535 161.140021 73.026664 160.807638 72.694281 
C 160.475255 72.361898 160.024384 72.175141 159.554324 72.175141 
C 159.084264 72.175141 158.633393 72.361898 158.30101 72.694281 
C 157.968627 73.026664 157.78187 73.477535 157.78187 73.947595 
C 157.78187 74.417655 157.968627 74.868526 158.30101 75.200909 
C 158.633393 75.533292 159.084264 75.720049 159.554324 75.720049 
z
" clip-path="url(#p6c20470cf1)" style="stroke: #000000; stroke-width: 0.886227"/>
    <path d="M 166.31796 123.868006 
C 166.78802 123.868006 167.238892 123.681249 167.571274 123.348866 
C 167.903657 123.016483 168.090414 122.565612 168.090414 122.095552 
C 168.090414 121.625491 167.903657 121.17462 167.571274 120.842238 
C 167.238892 120.509855 166.78802 120.323098 166.31796 120.323098 
C 165.8479 120.323098 165.397029 120.509855 165.064646 120.842238 
C 164.732263 121.17462 164.545506 121.625491 164.545506 122.095552 
C 164.545506 122.565612 164.732263 123.016483 165.064646 123.348866 
C 165.397029 123.681249 165.8479 123.868006 166.31796 123.868006 
z
" clip-path="url(#p6c20470cf1)" style="stroke: #000000; stroke-width: 0.886227"/>
    <path d="M 173.081597 128.146108 
C 173.551657 128.146108 174.002528 127.959351 174.334911 127.626968 
C 174.667294 127.294586 174.85405 126.843714 174.85405 126.373654 
C 174.85405 125.903594 174.667294 125.452723 174.334911 125.12034 
C 174.002528 124.787957 173.551657 124.6012 173.081597 124.6012 
C 172.611536 124.6012 172.160665 124.787957 171.828282 125.12034 
C 171.4959 125.452723 171.309143 125.903594 171.309143 126.373654 
C 171.309143 126.843714 171.4959 127.294586 171.828282 127.626968 
C 172.160665 127.959351 172.611536 128.146108 173.081597 128.146108 
z
" clip-path="url(#p6c20470cf1)" style="stroke: #000000; stroke-width: 0.886227"/>
    <path d="M 179.845233 152.895804 
C 180.315293 152.895804 180.766164 152.709047 181.098547 152.376664 
C 181.43093 152.044282 181.617687 151.593411 181.617687 151.12335 
C 181.617687 150.65329 181.43093 150.202419 181.098547 149.870036 
C 180.766164 149.537653 180.315293 149.350896 179.845233 149.350896 
C 179.375173 149.350896 178.924302 149.537653 178.591919 149.870036 
C 178.259536 150.202419 178.072779 150.65329 178.072779 151.12335 
C 178.072779 151.593411 178.259536 152.044282 178.591919 152.376664 
C 178.924302 152.709047 179.375173 152.895804 179.845233 152.895804 
z
" clip-path="url(#p6c20470cf1)" style="stroke: #000000; stroke-width: 0.886227"/>
    <path d="M 186.608869 210.364235 
C 187.07893 210.364235 187.529801 210.177478 187.862183 209.845095 
C 188.194566 209.512713 188.381323 209.061842 188.381323 208.591781 
C 188.381323 208.121721 188.194566 207.67085 187.862183 207.338467 
C 187.529801 207.006084 187.07893 206.819327 186.608869 206.819327 
C 186.138809 206.819327 185.687938 207.006084 185.355555 207.338467 
C 185.023172 207.67085 184.836415 208.121721 184.836415 208.591781 
C 184.836415 209.061842 185.023172 209.512713 185.355555 209.845095 
C 185.687938 210.177478 186.138809 210.364235 186.608869 210.364235 
z
" clip-path="url(#p6c20470cf1)" style="stroke: #000000; stroke-width: 0.886227"/>
    <path d="M 193.372506 212.126772 
C 193.842566 212.126772 194.293437 211.940016 194.62582 211.607633 
C 194.958203 211.27525 195.14496 210.824379 195.14496 210.354319 
C 195.14496 209.884258 194.958203 209.433387 194.62582 209.101005 
C 194.293437 208.768622 193.842566 208.581865 193.372506 208.581865 
C 192.902445 208.581865 192.451574 208.768622 192.119192 209.101005 
C 191.786809 209.433387 191.600052 209.884258 191.600052 210.354319 
C 191.600052 210.824379 191.786809 211.27525 192.119192 211.607633 
C 192.451574 211.940016 192.902445 212.126772 193.372506 212.126772 
z
" clip-path="url(#p6c20470cf1)" style="stroke: #000000; stroke-width: 0.886227"/>
    <path d="M 200.136142 182.425614 
C 200.606202 182.425614 201.057073 182.238857 201.389456 181.906474 
C 201.721839 181.574091 201.908596 181.12322 201.908596 180.65316 
C 201.908596 180.1831 201.721839 179.732229 201.389456 179.399846 
C 201.057073 179.067463 200.606202 178.880706 200.136142 178.880706 
C 199.666082 178.880706 199.215211 179.067463 198.882828 179.399846 
C 198.550445 179.732229 198.363688 180.1831 198.363688 180.65316 
C 198.363688 181.12322 198.550445 181.574091 198.882828 181.906474 
C 199.215211 182.238857 199.666082 182.425614 200.136142 182.425614 
z
" clip-path="url(#p6c20470cf1)" style="stroke: #000000; stroke-width: 0.886227"/>
    <path d="M 206.899778 181.447277 
C 207.369839 181.447277 207.82071 181.26052 208.153093 180.928137 
C 208.485475 180.595754 208.672232 180.144883 208.672232 179.674823 
C 208.672232 179.204763 208.485475 178.753892 208.153093 178.421509 
C 207.82071 178.089126 207.369839 177.902369 206.899778 177.902369 
C 206.429718 177.902369 205.978847 178.089126 205.646464 178.421509 
C 205.314081 178.753892 205.127325 179.204763 205.127325 179.674823 
C 205.127325 180.144883 205.314081 180.595754 205.646464 180.928137 
C 205.978847 181.26052 206.429718 181.447277 206.899778 181.447277 
z
" clip-path="url(#p6c20470cf1)" style="stroke: #000000; stroke-width: 0.886227"/>
    <path d="M 213.663415 210.071771 
C 214.133475 210.071771 214.584346 209.885014 214.916729 209.552631 
C 215.249112 209.220249 215.435869 208.769378 215.435869 208.299317 
C 215.435869 207.829257 215.249112 207.378386 214.916729 207.046003 
C 214.584346 206.71362 214.133475 206.526863 213.663415 206.526863 
C 213.193355 206.526863 212.742483 206.71362 212.410101 207.046003 
C 212.077718 207.378386 211.890961 207.829257 211.890961 208.299317 
C 211.890961 208.769378 212.077718 209.220249 212.410101 209.552631 
C 212.742483 209.885014 213.193355 210.071771 213.663415 210.071771 
z
" clip-path="url(#p6c20470cf1)" style="stroke: #000000; stroke-width: 0.886227"/>
    <path d="M 220.427051 210.940323 
C 220.897111 210.940323 221.347982 210.753566 221.680365 210.421183 
C 222.012748 210.0888 222.199505 209.637929 222.199505 209.167869 
C 222.199505 208.697809 222.012748 208.246938 221.680365 207.914555 
C 221.347982 207.582172 220.897111 207.395415 220.427051 207.395415 
C 219.956991 207.395415 219.50612 207.582172 219.173737 207.914555 
C 218.841354 208.246938 218.654597 208.697809 218.654597 209.167869 
C 218.654597 209.637929 218.841354 210.0888 219.173737 210.421183 
C 219.50612 210.753566 219.956991 210.940323 220.427051 210.940323 
z
" clip-path="url(#p6c20470cf1)" style="stroke: #000000; stroke-width: 0.886227"/>
    <path d="M 227.190688 239.557825 
C 227.660748 239.557825 228.111619 239.371068 228.444002 239.038685 
C 228.776384 238.706302 228.963141 238.255431 228.963141 237.785371 
C 228.963141 237.31531 228.776384 236.864439 228.444002 236.532057 
C 228.111619 236.199674 227.660748 236.012917 227.190688 236.012917 
C 226.720627 236.012917 226.269756 236.199674 225.937373 236.532057 
C 225.604991 236.864439 225.418234 237.31531 225.418234 237.785371 
C 225.418234 238.255431 225.604991 238.706302 225.937373 239.038685 
C 226.269756 239.371068 226.720627 239.557825 227.190688 239.557825 
z
" clip-path="url(#p6c20470cf1)" style="stroke: #000000; stroke-width: 0.886227"/>
    <path d="M 233.954324 239.487954 
C 234.424384 239.487954 234.875255 239.301197 235.207638 238.968814 
C 235.540021 238.636432 235.726778 238.185561 235.726778 237.7155 
C 235.726778 237.24544 235.540021 236.794569 235.207638 236.462186 
C 234.875255 236.129803 234.424384 235.943046 233.954324 235.943046 
C 233.484264 235.943046 233.033393 236.129803 232.70101 236.462186 
C 232.368627 236.794569 232.18187 237.24544 232.18187 237.7155 
C 232.18187 238.185561 232.368627 238.636432 232.70101 238.968814 
C 233.033393 239.301197 233.484264 239.487954 233.954324 239.487954 
z
" clip-path="url(#p6c20470cf1)" style="stroke: #000000; stroke-width: 0.886227"/>
    <path d="M 240.71796 238.732681 
C 241.18802 238.732681 241.638892 238.545924 241.971274 238.213541 
C 242.303657 237.881159 242.490414 237.430288 242.490414 236.960227 
C 242.490414 236.490167 242.303657 236.039296 241.971274 235.706913 
C 241.638892 235.37453 241.18802 235.187773 240.71796 235.187773 
C 240.2479 235.187773 239.797029 235.37453 239.464646 235.706913 
C 239.132263 236.039296 238.945506 236.490167 238.945506 236.960227 
C 238.945506 237.430288 239.132263 237.881159 239.464646 238.213541 
C 239.797029 238.545924 240.2479 238.732681 240.71796 238.732681 
z
" clip-path="url(#p6c20470cf1)" style="stroke: #000000; stroke-width: 0.886227"/>
    <path d="M 247.481597 239.025151 
C 247.951657 239.025151 248.402528 238.838394 248.734911 238.506011 
C 249.067294 238.173628 249.25405 237.722757 249.25405 237.252697 
C 249.25405 236.782637 249.067294 236.331766 248.734911 235.999383 
C 248.402528 235.667 247.951657 235.480243 247.481597 235.480243 
C 247.011536 235.480243 246.560665 235.667 246.228282 235.999383 
C 245.8959 236.331766 245.709143 236.782637 245.709143 237.252697 
C 245.709143 237.722757 245.8959 238.173628 246.228282 238.506011 
C 246.560665 238.838394 247.011536 239.025151 247.481597 239.025151 
z
" clip-path="url(#p6c20470cf1)" style="stroke: #000000; stroke-width: 0.886227"/>
    <path d="M 146.027051 187.646021 
C 146.497111 187.646021 146.947982 187.459264 147.280365 187.126881 
C 147.612748 186.794499 147.799505 186.343628 147.799505 185.873567 
C 147.799505 185.403507 147.612748 184.952636 147.280365 184.620253 
C 146.947982 184.28787 146.497111 184.101113 146.027051 184.101113 
C 145.556991 184.101113 145.10612 184.28787 144.773737 184.620253 
C 144.441354 184.952636 144.254597 185.403507 144.254597 185.873567 
C 144.254597 186.343628 144.441354 186.794499 144.773737 187.126881 
C 145.10612 187.459264 145.556991 187.646021 146.027051 187.646021 
z
" clip-path="url(#p6c20470cf1)" style="stroke: #000000; stroke-width: 0.886227"/>
    <path d="M 152.790688 115.069713 
C 153.260748 115.069713 153.711619 114.882956 154.044002 114.550574 
C 154.376384 114.218191 154.563141 113.76732 154.563141 113.29726 
C 154.563141 112.827199 154.376384 112.376328 154.044002 112.043945 
C 153.711619 111.711563 153.260748 111.524806 152.790688 111.524806 
C 152.320627 111.524806 151.869756 111.711563 151.537373 112.043945 
C 151.204991 112.376328 151.018234 112.827199 151.018234 113.29726 
C 151.018234 113.76732 151.204991 114.218191 151.537373 114.550574 
C 151.869756 114.882956 152.320627 115.069713 152.790688 115.069713 
z
" clip-path="url(#p6c20470cf1)" style="stroke: #000000; stroke-width: 0.886227"/>
    <path d="M 159.554324 113.896858 
C 160.024384 113.896858 160.475255 113.710101 160.807638 113.377718 
C 161.140021 113.045335 161.326778 112.594464 161.326778 112.124404 
C 161.326778 111.654344 161.140021 111.203473 160.807638 110.87109 
C 160.475255 110.538707 160.024384 110.35195 159.554324 110.35195 
C 159.084264 110.35195 158.633393 110.538707 158.30101 110.87109 
C 157.968627 111.203473 157.78187 111.654344 157.78187 112.124404 
C 157.78187 112.594464 157.968627 113.045335 158.30101 113.377718 
C 158.633393 113.710101 159.084264 113.896858 159.554324 113.896858 
z
" clip-path="url(#p6c20470cf1)" style="stroke: #000000; stroke-width: 0.886227"/>
    <path d="M 166.31796 37.957825 
C 166.78802 37.957825 167.238892 37.771068 167.571274 37.438685 
C 167.903657 37.106302 168.090414 36.655431 168.090414 36.185371 
C 168.090414 35.71531 167.903657 35.264439 167.571274 34.932057 
C 167.238892 34.599674 166.78802 34.412917 166.31796 34.412917 
C 165.8479 34.412917 165.397029 34.599674 165.064646 34.932057 
C 164.732263 35.264439 164.545506 35.71531 164.545506 36.185371 
C 164.545506 36.655431 164.732263 37.106302 165.064646 37.438685 
C 165.397029 37.771068 165.8479 37.957825 166.31796 37.957825 
z
" clip-path="url(#p6c20470cf1)" style="stroke: #000000; stroke-width: 0.886227"/>
    <path d="M 173.081597 129.791074 
C 173.551657 129.791074 174.002528 129.604317 174.334911 129.271934 
C 174.667294 128.939551 174.85405 128.48868 174.85405 128.01862 
C 174.85405 127.54856 174.667294 127.097689 174.334911 126.765306 
C 174.002528 126.432923 173.551657 126.246166 173.081597 126.246166 
C 172.611536 126.246166 172.160665 126.432923 171.828282 126.765306 
C 171.4959 127.097689 171.309143 127.54856 171.309143 128.01862 
C 171.309143 128.48868 171.4959 128.939551 171.828282 129.271934 
C 172.160665 129.604317 172.611536 129.791074 173.081597 129.791074 
z
" clip-path="url(#p6c20470cf1)" style="stroke: #000000; stroke-width: 0.886227"/>
    <path d="M 179.845233 197.457679 
C 180.315293 197.457679 180.766164 197.270922 181.098547 196.938539 
C 181.43093 196.606156 181.617687 196.155285 181.617687 195.685225 
C 181.617687 195.215165 181.43093 194.764294 181.098547 194.431911 
C 180.766164 194.099528 180.315293 193.912771 179.845233 193.912771 
C 179.375173 193.912771 178.924302 194.099528 178.591919 194.431911 
C 178.259536 194.764294 178.072779 195.215165 178.072779 195.685225 
C 178.072779 196.155285 178.259536 196.606156 178.591919 196.938539 
C 178.924302 197.270922 179.375173 197.457679 179.845233 197.457679 
z
" clip-path="url(#p6c20470cf1)" style="stroke: #000000; stroke-width: 0.886227"/>
   </g>
   <g id="LineCollection_1">
    <path d="M 41.190688 174.667711 
L 264.390688 174.667711 
" clip-path="url(#p6c20470cf1)" style="fill: none; stroke: #000000; stroke-width: 0.886227"/>
   </g>
  </g>
  <g id="text_9">
   <!-- AR WT spickle ratios -->
   <g transform="translate(81.777875 17.229938)scale(0.132 -0.132)">
    <defs>
     <path id="DejaVuSans-41" d="M 2188 4044 
L 1331 1722 
L 3047 1722 
L 2188 4044 
z
M 1831 4666 
L 2547 4666 
L 4325 0 
L 3669 0 
L 3244 1197 
L 1141 1197 
L 716 0 
L 50 0 
L 1831 4666 
z
" transform="scale(0.015625)"/>
     <path id="DejaVuSans-57" d="M 213 4666 
L 850 4666 
L 1831 722 
L 2809 4666 
L 3519 4666 
L 4500 722 
L 5478 4666 
L 6119 4666 
L 4947 0 
L 4153 0 
L 3169 4050 
L 2175 0 
L 1381 0 
L 213 4666 
z
" transform="scale(0.015625)"/>
     <path id="DejaVuSans-73" d="M 2834 3397 
L 2834 2853 
Q 2591 2978 2328 3040 
Q 2066 3103 1784 3103 
Q 1356 3103 1142 2972 
Q 928 2841 928 2578 
Q 928 2378 1081 2264 
Q 1234 2150 1697 2047 
L 1894 2003 
Q 2506 1872 2764 1633 
Q 3022 1394 3022 966 
Q 3022 478 2636 193 
Q 2250 -91 1575 -91 
Q 1294 -91 989 -36 
Q 684 19 347 128 
L 347 722 
Q 666 556 975 473 
Q 1284 391 1588 391 
Q 1994 391 2212 530 
Q 2431 669 2431 922 
Q 2431 1156 2273 1281 
Q 2116 1406 1581 1522 
L 1381 1569 
Q 847 1681 609 1914 
Q 372 2147 372 2553 
Q 372 3047 722 3315 
Q 1072 3584 1716 3584 
Q 2034 3584 2315 3537 
Q 2597 3491 2834 3397 
z
" transform="scale(0.015625)"/>
     <path id="DejaVuSans-72" d="M 2631 2963 
Q 2534 3019 2420 3045 
Q 2306 3072 2169 3072 
Q 1681 3072 1420 2755 
Q 1159 2438 1159 1844 
L 1159 0 
L 581 0 
L 581 3500 
L 1159 3500 
L 1159 2956 
Q 1341 3275 1631 3429 
Q 1922 3584 2338 3584 
Q 2397 3584 2469 3576 
Q 2541 3569 2628 3553 
L 2631 2963 
z
" transform="scale(0.015625)"/>
    </defs>
    <use xlink:href="#DejaVuSans-41"/>
    <use xlink:href="#DejaVuSans-52" x="68.408203"/>
    <use xlink:href="#DejaVuSans-20" x="137.890625"/>
    <use xlink:href="#DejaVuSans-57" x="169.677734"/>
    <use xlink:href="#DejaVuSans-54" x="268.554688"/>
    <use xlink:href="#DejaVuSans-20" x="329.638672"/>
    <use xlink:href="#DejaVuSans-73" x="361.425781"/>
    <use xlink:href="#DejaVuSans-70" x="413.525391"/>
    <use xlink:href="#DejaVuSans-69" x="477.001953"/>
    <use xlink:href="#DejaVuSans-63" x="504.785156"/>
    <use xlink:href="#DejaVuSans-6b" x="559.765625"/>
    <use xlink:href="#DejaVuSans-6c" x="617.675781"/>
    <use xlink:href="#DejaVuSans-65" x="645.458984"/>
    <use xlink:href="#DejaVuSans-20" x="706.982422"/>
    <use xlink:href="#DejaVuSans-72" x="738.769531"/>
    <use xlink:href="#DejaVuSans-61" x="779.882812"/>
    <use xlink:href="#DejaVuSans-74" x="841.162109"/>
    <use xlink:href="#DejaVuSans-69" x="880.371094"/>
    <use xlink:href="#DejaVuSans-6f" x="908.154297"/>
    <use xlink:href="#DejaVuSans-73" x="969.335938"/>
   </g>
  </g>
 </g>
 <defs>
  <clipPath id="p6c20470cf1">
   <rect x="41.190688" y="26.105371" width="223.2" height="221.76"/>
  </clipPath>
 </defs>
</svg>
